<?xml version="1.0" encoding="utf-8"?>
<!-- Generator: Adobe Illustrator 21.1.0, SVG Export Plug-In . SVG Version: 6.00 Build 0)  -->
<svg version="1.1" id="레이어_1" xmlns="http://www.w3.org/2000/svg" xmlns:xlink="http://www.w3.org/1999/xlink" x="0px"
	 y="0px" width="450px" height="450px" viewBox="0 0 450 450" style="enable-background:new 0 0 450 450;" xml:space="preserve">
<style type="text/css">
	.st0{fill:#0090d2;}
	.st1{fill:#FFFFFF;}
</style>
<path class="st0" d="M450,225c0,124.3-100.7,225-225,225S0,349.3,0,225S100.7,0,225,0S450,100.7,450,225z"/>
<path class="st1" d="M225.7,77.4c1.4,0,2.7,1.8,4,5.4c1.3,3.6,2.4,9,3.3,16.3c0.9,7.3,1.4,13.3,1.4,17.9l14.8,10.8l0.7-5
	c0.3-1.8,0.5-3,0.7-3.6c0.2-0.6,0.7-0.8,1.4-0.8h1.5c0.9,0,1.4,0.5,1.6,1.4c0.2,1,0.4,2.3,0.5,4l0.8,9l11.2,8.3l0.7-5.1
	c0.3-1.8,0.5-3,0.7-3.5c0.2-0.5,0.7-0.8,1.4-0.8h1.5c0.9,0,1.4,0.5,1.6,1.6c0.2,1.1,0.4,2.5,0.5,4.2l0.7,9l13.6,9.8
	c1.2,0.8,2,2.1,2.6,3.9l3.3,10.8l-3.6-2.9l-46.5-18l-9.3-1.1c0,2.6-0.6,9.4-1.9,20.3c-1.3,11-2.2,18.1-2.7,21.4l18.3,12.6l1.5,9.1
	l-21.6-7.2c-0.6,4.5-1.5,6.8-2.5,6.8c-1,0-1.8-2.3-2.5-6.8l-21.6,7.2l1.4-9.1l18.4-12.6c-0.6-4-1.6-11.4-2.8-22.1
	c-1.2-10.7-1.8-17.2-1.8-19.6l-9.3,1.1l-46.5,18l-3.6,2.9l3.3-10.8c0.2-0.6,0.4-1.2,0.6-1.6s0.4-0.7,0.6-1
	c0.2-0.3,5.2-4.1,14.9-11.5l0.4-7.2c0.1-1.7,0.3-3,0.5-4c0.2-0.9,0.8-1.4,1.7-1.4h1.4c0.6,0,1,0.1,1.4,0.4c0.3,0.3,1,2.7,1.9,7.1
	l11.2-8.3l0.4-7.2c0.1-1.7,0.3-3.1,0.5-4.1c0.2-1.1,0.8-1.6,1.7-1.6h1.4c0.9,0,1.5,0.3,1.7,0.9s0.8,2.9,1.5,7l14.8-10.8
	c0-4.9,0.5-10.9,1.4-18.2c0.9-7.2,2-12.6,3.3-16.1C223.1,79.1,224.4,77.4,225.7,77.4z"/>
<path class="st1" d="M157.5,57.5h137c37,0,48,117,48,117c0,75,0,112,0,112s-4,27-32,27h-14l52,77h-29l-10-13h-170l-10,15h-28l51-79
	h-14c0,0-34-4-34-34s0-109,0-109S115.8,57.5,157.5,57.5z M165.5,75.5c0,0-39,17-39,78v34c0,0,0,27,27,27s141,0,141,0s28-2,28-28v-27
	c0,0-6-84-45-84S135.5,75.5,165.5,75.5z M155,248.5c-10.8,0-19.5,8.7-19.5,19.5s8.7,19.5,19.5,19.5s19.5-8.7,19.5-19.5
	S165.8,248.5,155,248.5z M295.3,248.8c-10.8,0-19.5,8.7-19.5,19.5s8.7,19.5,19.5,19.5s19.5-8.7,19.5-19.5S306,248.8,295.3,248.8z
	 M168.3,335.3l-15,25h145l-16-25H168.3z M183.1,311.5l-10.6,14.8h102l-11.3-14.8H183.1z"/>
</svg>
