<svg width="40" height="40" viewBox="0 0 40 40" fill="none" xmlns="http://www.w3.org/2000/svg">
<path d="M29.6146 15.512C29.8974 15.1725 29.8516 14.6681 29.5121 14.3852C29.1727 14.1024 28.6683 14.1482 28.3854 14.4877L29.6146 15.512ZM20 25.7998L19.3854 26.312L20 27.0494L20.6146 26.312L20 25.7998ZM11.6146 14.4877C11.3317 14.1482 10.8273 14.1024 10.4879 14.3852C10.1484 14.6681 10.1026 15.1725 10.3854 15.5119L11.6146 14.4877ZM28.3854 14.4877L19.3854 25.2877L20.6146 26.312L29.6146 15.512L28.3854 14.4877ZM20.6146 25.2877L11.6146 14.4877L10.3854 15.5119L19.3854 26.312L20.6146 25.2877Z" fill="black"/>
</svg>
