<svg width="40" height="40" viewBox="0 0 40 40" fill="none" xmlns="http://www.w3.org/2000/svg">
<rect x="9" y="13.1793" width="21.5153" height="5.37882" rx="2.68941" fill="#E0E0E0"/>
<rect x="9" y="19.9027" width="21.5153" height="5.37882" rx="2.68941" fill="#E0E0E0"/>
<rect x="9" y="26.6266" width="21.5153" height="5.37882" rx="2.68941" fill="#E0E0E0"/>
<path fill-rule="evenodd" clip-rule="evenodd" d="M21.1024 10.053C21.1024 10.053 21.1025 10.0529 21.1025 10.0529L20.2041 8.27454C20.0191 7.90848 19.4964 7.90849 19.3115 8.27455L18.4131 10.0529C18.4131 10.0529 18.4131 10.053 18.4132 10.053C18.4132 10.053 18.4133 10.053 18.4132 10.0531L18.4131 10.0531C18.4131 10.0531 18.4131 10.0532 18.4131 10.0532V11.5586C18.4131 11.7266 18.4975 11.8834 18.6377 11.9759L19.4824 12.5333C19.6495 12.6435 19.8661 12.6435 20.0332 12.5333L20.8779 11.9759C21.0181 11.8834 21.1025 11.7266 21.1025 11.5586V10.0532C21.1025 10.0532 21.1025 10.0531 21.1025 10.0531L21.1024 10.0531C21.1023 10.053 21.1024 10.053 21.1024 10.053Z" fill="#E0E0E0"/>
</svg>
