<svg width="40" height="40" viewBox="0 0 40 40" fill="none" xmlns="http://www.w3.org/2000/svg">
<path d="M13.0394 15.6296L17.2406 9.52753C17.3485 9.37072 17.499 9.24799 17.6743 9.17376L19.2876 8.49061C19.7962 8.27525 20.383 8.51295 20.5984 9.02152L21.5439 11.2545L22.3404 13.6092C22.4031 13.7945 22.41 13.9941 22.3604 14.1834L22.0605 15.3264C21.9829 15.622 21.7745 15.8658 21.4947 15.9885L19.1324 17.024C18.6258 17.2461 18.3957 17.8373 18.6189 18.3434L21.1915 24.1766C21.4264 24.7091 22.0646 24.9293 22.5779 24.6549L24.3164 23.7255C24.4733 23.6416 24.6497 23.6011 24.8275 23.6081L25.9307 23.6518C26.3315 23.6677 26.6841 23.9216 26.8262 24.2968L28.7915 29.485C28.9819 29.9875 28.7411 30.5506 28.2463 30.7601L26.6661 31.4292C26.4489 31.5212 26.2063 31.5334 25.981 31.4638L18.6718 29.2053C18.3901 29.1183 18.1611 28.9113 18.0462 28.6398L12.9422 16.5866C12.809 16.272 12.8456 15.9111 13.0394 15.6296Z" stroke="black" stroke-width="1.4"/>
</svg>
