<svg width="40" height="40" viewBox="0 0 40 40" fill="none" xmlns="http://www.w3.org/2000/svg">
<path d="M13.0394 15.529L17.2406 9.42694C17.3485 9.27014 17.499 9.14741 17.6743 9.07317L19.2876 8.39002C19.7962 8.17467 20.383 8.41236 20.5984 8.92093L21.5439 11.154L22.3404 13.5086C22.4031 13.6939 22.41 13.8936 22.3604 14.0828L22.0605 15.2258C21.9829 15.5214 21.7745 15.7653 21.4947 15.8879L19.1324 16.9234C18.6258 17.1455 18.3957 17.7367 18.6189 18.2428L21.1915 24.076C21.4264 24.6085 22.0646 24.8288 22.5779 24.5543L24.3164 23.6249C24.4733 23.541 24.6497 23.5005 24.8275 23.5075L25.9307 23.5513C26.3315 23.5671 26.6841 23.8211 26.8262 24.1962L28.7915 29.3844C28.9819 29.8869 28.7411 30.45 28.2463 30.6595L26.6661 31.3286C26.4489 31.4206 26.2063 31.4329 25.981 31.3632L18.6718 29.1047C18.3901 29.0177 18.1611 28.8107 18.0462 28.5392L12.9422 16.4861C12.809 16.1714 12.8456 15.8105 13.0394 15.529Z" fill="#E0E0E0"/>
</svg>
