<svg width="40" height="40" viewBox="0 0 40 40" fill="none" xmlns="http://www.w3.org/2000/svg">
<circle cx="20" cy="20" r="9" fill="black" stroke="black" stroke-width="2"/>
<path d="M16.561 19.0726C16.2461 18.7627 15.7396 18.7669 15.4297 19.0818C15.1199 19.3968 15.124 19.9033 15.439 20.2132L16.561 19.0726ZM19.9617 23.5404L19.4007 24.1107L20.0599 24.7593L20.6068 24.0135L19.9617 23.5404ZM24.7973 18.2992C25.0586 17.9429 24.9816 17.4423 24.6253 17.181C24.269 16.9197 23.7683 16.9967 23.5071 17.353L24.7973 18.2992ZM15.439 20.2132L19.4007 24.1107L20.5228 22.9701L16.561 19.0726L15.439 20.2132ZM20.6068 24.0135L24.7973 18.2992L23.5071 17.353L19.3166 23.0673L20.6068 24.0135Z" fill="white"/>
</svg>
