<svg width="10" height="6" viewBox="0 0 10 6" fill="none" xmlns="http://www.w3.org/2000/svg">
<path d="M9.73691 0.266468C9.65405 0.181999 9.55564 0.114984 9.4473 0.0692601C9.33895 0.0235359 9.22281 -3.46515e-08 9.10552 -3.98811e-08C8.98822 -4.51108e-08 8.87208 0.0235358 8.76374 0.06926C8.65539 0.114984 8.55698 0.181999 8.47412 0.266468L4.99922 3.80184L1.52432 0.266468C1.35686 0.0960984 1.12974 0.000385426 0.892925 0.000385415C0.656107 0.000385404 0.428987 0.0960983 0.26153 0.266468C0.0940742 0.436838 -2.86228e-08 0.667909 -3.89481e-08 0.908848C-4.92734e-08 1.14979 0.0940742 1.38086 0.26153 1.55123L4.3723 5.73353C4.45516 5.818 4.55357 5.88502 4.66192 5.93074C4.77026 5.97646 4.8864 6 5.0037 6C5.12099 6 5.23714 5.97646 5.34548 5.93074C5.45382 5.88502 5.55224 5.818 5.63509 5.73353L9.74586 1.55123C10.0862 1.20498 10.0862 0.621828 9.73691 0.266468Z" fill="white"/>
</svg>
