<svg width="40" height="40" viewBox="0 0 40 40" fill="none" xmlns="http://www.w3.org/2000/svg">
<mask id="path-1-inside-1_261_1317" fill="white">
<path fill-rule="evenodd" clip-rule="evenodd" d="M31.9936 17.3814C31.9978 17.2804 32 17.1789 32 17.0769C32 13.1684 28.8316 10 24.9231 10C23.0097 10 21.2738 10.7593 20 11.993C18.7262 10.7593 16.9903 10 15.0769 10C11.1684 10 8 13.1684 8 17.0769C8 17.1789 8.00216 17.2804 8.00643 17.3814C8.00216 17.4811 8 17.5847 8 17.6923C8 23.47 20 32.4616 20 32.4616C20 32.4616 32 23.4701 32 17.6923C32 17.5847 31.9978 17.4811 31.9936 17.3814Z"/>
</mask>
<path fill-rule="evenodd" clip-rule="evenodd" d="M31.9936 17.3814C31.9978 17.2804 32 17.1789 32 17.0769C32 13.1684 28.8316 10 24.9231 10C23.0097 10 21.2738 10.7593 20 11.993C18.7262 10.7593 16.9903 10 15.0769 10C11.1684 10 8 13.1684 8 17.0769C8 17.1789 8.00216 17.2804 8.00643 17.3814C8.00216 17.4811 8 17.5847 8 17.6923C8 23.47 20 32.4616 20 32.4616C20 32.4616 32 23.4701 32 17.6923C32 17.5847 31.9978 17.4811 31.9936 17.3814Z" fill="#FEF7B1"/>
<path d="M31.9936 17.3814L30.6947 17.3264L30.6924 17.3817L30.6948 17.4371L31.9936 17.3814ZM20 11.993L19.0956 12.9268L20 13.8028L20.9044 12.9268L20 11.993ZM8.00643 17.3814L9.30524 17.4371L9.30761 17.3817L9.30527 17.3264L8.00643 17.3814ZM20 32.4616L19.2205 33.5019L20 34.086L20.7795 33.5019L20 32.4616ZM33.2924 17.4364C33.2975 17.3171 33.3 17.1973 33.3 17.0769H30.7C30.7 17.1606 30.6982 17.2438 30.6947 17.3264L33.2924 17.4364ZM33.3 17.0769C33.3 12.4505 29.5495 8.7 24.9231 8.7V11.3C28.1136 11.3 30.7 13.8864 30.7 17.0769H33.3ZM24.9231 8.7C22.6588 8.7 20.602 9.6001 19.0956 11.0592L20.9044 12.9268C21.9455 11.9185 23.3607 11.3 24.9231 11.3V8.7ZM20.9044 11.0592C19.398 9.6001 17.3412 8.7 15.0769 8.7V11.3C16.6393 11.3 18.0545 11.9185 19.0956 12.9268L20.9044 11.0592ZM15.0769 8.7C10.4505 8.7 6.7 12.4505 6.7 17.0769H9.3C9.3 13.8864 11.8864 11.3 15.0769 11.3V8.7ZM6.7 17.0769C6.7 17.1973 6.70255 17.3171 6.70759 17.4364L9.30527 17.3264C9.30177 17.2438 9.3 17.1606 9.3 17.0769H6.7ZM9.3 17.6923C9.3 17.602 9.30181 17.517 9.30524 17.4371L6.70762 17.3257C6.7025 17.4452 6.7 17.5674 6.7 17.6923H9.3ZM20 32.4616C20.7795 31.4212 20.7796 31.4213 20.7797 31.4213C20.7797 31.4213 20.7797 31.4213 20.7796 31.4213C20.7795 31.4212 20.7791 31.4209 20.7786 31.4205C20.7776 31.4197 20.7758 31.4184 20.7734 31.4166C20.7685 31.4129 20.7607 31.407 20.7503 31.3991C20.7293 31.3833 20.6974 31.359 20.6553 31.3268C20.5711 31.2624 20.4462 31.166 20.2863 31.0407C19.9663 30.79 19.5071 30.4238 18.955 29.9658C17.8491 29.0484 16.3795 27.77 14.9146 26.3198C13.4441 24.8639 12.0091 23.2649 10.9502 21.7068C9.86494 20.1098 9.3 18.7353 9.3 17.6923H6.7C6.7 19.5381 7.63506 21.4543 8.79978 23.1682C9.99095 24.921 11.5559 26.6531 13.0854 28.1674C14.6205 29.6872 16.1509 31.0179 17.295 31.9669C17.8679 32.4422 18.3462 32.8236 18.6825 33.0872C18.8507 33.219 18.9835 33.3214 19.0751 33.3915C19.1209 33.4266 19.1564 33.4536 19.1809 33.4721C19.1931 33.4813 19.2026 33.4885 19.2092 33.4935C19.2125 33.496 19.2151 33.4979 19.217 33.4993C19.218 33.5 19.2187 33.5006 19.2193 33.501C19.2196 33.5013 19.2199 33.5015 19.22 33.5016C19.2203 33.5018 19.2205 33.5019 20 32.4616ZM30.7 17.6923C30.7 18.7354 30.1351 20.1098 29.0498 21.7068C27.9909 23.2649 26.5559 24.8639 25.0854 26.3198C23.6205 27.77 22.1509 29.0484 21.045 29.9658C20.4929 30.4238 20.0337 30.79 19.7137 31.0407C19.5538 31.166 19.4289 31.2624 19.3447 31.3268C19.3026 31.359 19.2707 31.3833 19.2497 31.3991C19.2393 31.407 19.2315 31.4129 19.2266 31.4166C19.2242 31.4184 19.2224 31.4197 19.2214 31.4205C19.2209 31.4209 19.2205 31.4212 19.2204 31.4213C19.2203 31.4213 19.2203 31.4213 19.2203 31.4213C19.2204 31.4213 19.2205 31.4212 20 32.4616C20.7795 33.5019 20.7797 33.5018 20.78 33.5016C20.7801 33.5015 20.7804 33.5013 20.7807 33.501C20.7813 33.5006 20.782 33.5 20.783 33.4993C20.7849 33.4979 20.7875 33.496 20.7908 33.4935C20.7974 33.4885 20.8069 33.4813 20.8191 33.4721C20.8436 33.4536 20.8791 33.4266 20.9249 33.3915C21.0165 33.3214 21.1493 33.219 21.3175 33.0872C21.6538 32.8236 22.1321 32.4422 22.705 31.9669C23.8491 31.0179 25.3795 29.6872 26.9146 28.1674C28.4441 26.6531 30.0091 24.921 31.2002 23.1682C32.3649 21.4543 33.3 19.5381 33.3 17.6923H30.7ZM30.6948 17.4371C30.6982 17.517 30.7 17.602 30.7 17.6923H33.3C33.3 17.5674 33.2975 17.4452 33.2924 17.3257L30.6948 17.4371Z" fill="black" mask="url(#path-1-inside-1_261_1317)"/>
</svg>
