<svg width="40" height="40" viewBox="0 0 40 40" fill="none" xmlns="http://www.w3.org/2000/svg">
<path fill-rule="evenodd" clip-rule="evenodd" d="M31.9936 17.3814C31.9978 17.2804 32 17.1789 32 17.0769C32 13.1684 28.8316 10 24.9231 10C23.0097 10 21.2738 10.7593 20 11.993C18.7262 10.7593 16.9903 10 15.0769 10C11.1684 10 8 13.1684 8 17.0769C8 17.1789 8.00216 17.2804 8.00643 17.3814C8.00216 17.4811 8 17.5847 8 17.6923C8 23.47 20 32.4616 20 32.4616C20 32.4616 32 23.4701 32 17.6923C32 17.5847 31.9978 17.4811 31.9936 17.3814Z" fill="black"/>
</svg>
