<svg width="40" height="40" viewBox="0 0 40 40" fill="none" xmlns="http://www.w3.org/2000/svg">
<path d="M10 17V30C10 30.5523 10.4477 31 11 31H29C29.5523 31 30 30.5523 30 30V17" stroke="black" stroke-width="1.4"/>
<path d="M6.5252 19.4856C6.24113 19.7479 6.22341 20.1907 6.48564 20.4748C6.74786 20.7589 7.19072 20.7766 7.4748 20.5144L6.5252 19.4856ZM32.5252 20.5144C32.8093 20.7766 33.2521 20.7589 33.5144 20.4748C33.7766 20.1907 33.7589 19.7479 33.4748 19.4856L32.5252 20.5144ZM19.3217 8.6261L18.8469 8.11174L19.3217 8.6261ZM7.4748 20.5144L19.7965 9.14047L18.8469 8.11174L6.5252 19.4856L7.4748 20.5144ZM20.2035 9.14047L32.5252 20.5144L33.4748 19.4856L21.1531 8.11174L20.2035 9.14047ZM19.7965 9.14047C19.9114 9.03439 20.0886 9.03439 20.2035 9.14047L21.1531 8.11174C20.5019 7.51063 19.4981 7.51063 18.8469 8.11174L19.7965 9.14047Z" fill="black"/>
</svg>
