<svg width="9" height="16" viewBox="0 0 9 16" fill="none" xmlns="http://www.w3.org/2000/svg">
<path d="M8.6003 15.5791C8.727 15.4465 8.82752 15.289 8.89611 15.1157C8.9647 14.9423 9 14.7565 9 14.5688C9 14.3812 8.9647 14.1953 8.89611 14.022C8.82752 13.8486 8.727 13.6912 8.6003 13.5586L3.29725 7.99875L8.6003 2.43891C8.85585 2.17098 8.99942 1.80759 8.99942 1.42868C8.99942 1.04977 8.85585 0.686378 8.6003 0.418449C8.34474 0.15052 7.99814 1.81976e-06 7.63673 1.78817e-06C7.27532 1.75657e-06 6.92871 0.15052 6.67316 0.418449L0.399701 6.99569C0.272997 7.12826 0.172475 7.28572 0.103888 7.45907C0.0353019 7.63242 -3.11343e-07 7.81825 -3.26077e-07 8.00592C-3.40811e-07 8.19359 0.0353018 8.37942 0.103888 8.55276C0.172474 8.72611 0.272997 8.88358 0.399701 9.01615L6.67316 15.5934C7.19253 16.1379 8.06726 16.1379 8.6003 15.5791Z" fill="white"/>
</svg>
