<svg width="16" height="16" viewBox="0 0 16 16" fill="none" xmlns="http://www.w3.org/2000/svg">
<path d="M11.6003 15.5791C11.727 15.4465 11.8275 15.289 11.8961 15.1157C11.9647 14.9423 12 14.7565 12 14.5688C12 14.3812 11.9647 14.1953 11.8961 14.022C11.8275 13.8486 11.727 13.6912 11.6003 13.5586L6.29725 7.99875L11.6003 2.43891C11.8559 2.17098 11.9994 1.80759 11.9994 1.42868C11.9994 1.04977 11.8559 0.686378 11.6003 0.418449C11.3447 0.15052 10.9981 1.81976e-06 10.6367 1.78817e-06C10.2753 1.75657e-06 9.92871 0.15052 9.67316 0.418449L3.3997 6.99569C3.273 7.12826 3.17247 7.28572 3.10389 7.45907C3.0353 7.63242 3 7.81825 3 8.00592C3 8.19359 3.0353 8.37942 3.10389 8.55276C3.17247 8.72611 3.273 8.88358 3.3997 9.01615L9.67316 15.5934C10.1925 16.1379 11.0673 16.1379 11.6003 15.5791Z" fill="black"/>
</svg>
