<svg width="40" height="40" viewBox="0 0 40 40" fill="none" xmlns="http://www.w3.org/2000/svg">
<path d="M25.2879 29.6146C25.6273 29.8974 26.1317 29.8516 26.4146 29.5121C26.6974 29.1727 26.6516 28.6683 26.3121 28.3854L25.2879 29.6146ZM15 20L14.4879 19.3854L13.7504 20L14.4879 20.6146L15 20ZM26.3121 11.6146C26.6516 11.3317 26.6974 10.8273 26.4146 10.4879C26.1317 10.1484 25.6273 10.1026 25.2879 10.3854L26.3121 11.6146ZM26.3121 28.3854L15.5121 19.3854L14.4879 20.6146L25.2879 29.6146L26.3121 28.3854ZM15.5121 20.6146L26.3121 11.6146L25.2879 10.3854L14.4879 19.3854L15.5121 20.6146Z" fill="black"/>
</svg>
