<svg width="40" height="40" viewBox="0 0 40 40" fill="none" xmlns="http://www.w3.org/2000/svg">
<mask id="path-1-inside-1_261_1328" fill="white">
<path fill-rule="evenodd" clip-rule="evenodd" d="M29.8121 18.9391C29.9354 18.3118 30 17.6635 30 17C30 11.4772 25.5228 7 20 7C14.4772 7 10 11.4772 10 17C10 17.4233 10.0263 17.8405 10.0774 18.25H10.0732C10.0732 18.25 10.2405 19.8271 10.625 20.75C13.75 28.25 20 33.25 20 33.25C20 33.25 26.25 28.875 29.375 20.75C29.58 20.2171 29.7253 19.476 29.8121 18.9391Z"/>
</mask>
<path d="M29.8121 18.9391L28.2421 18.6306L28.237 18.6571L28.2327 18.6836L29.8121 18.9391ZM10.0774 18.25V19.85H11.8893L11.6651 18.052L10.0774 18.25ZM10.0732 18.25V16.65H8.29463L8.48216 18.4187L10.0732 18.25ZM10.625 20.75L9.14808 21.3654H9.14808L10.625 20.75ZM20 33.25L19.0005 34.4994L19.936 35.2478L20.9175 34.5608L20 33.25ZM29.375 20.75L30.8684 21.3244L30.8684 21.3243L29.375 20.75ZM28.4 17C28.4 17.5593 28.3456 18.1044 28.2421 18.6306L31.3821 19.2476C31.5252 18.5192 31.6 17.7676 31.6 17H28.4ZM20 8.6C24.6392 8.6 28.4 12.3608 28.4 17H31.6C31.6 10.5935 26.4065 5.4 20 5.4V8.6ZM11.6 17C11.6 12.3608 15.3608 8.6 20 8.6V5.4C13.5935 5.4 8.4 10.5935 8.4 17H11.6ZM11.6651 18.052C11.6222 17.708 11.6 17.357 11.6 17H8.4C8.4 17.4897 8.43043 17.973 8.48966 18.448L11.6651 18.052ZM10.0732 19.85H10.0774V16.65H10.0732V19.85ZM12.1019 20.1346C11.9811 19.8447 11.8669 19.3655 11.7806 18.876C11.7404 18.648 11.7108 18.4446 11.6913 18.2989C11.6816 18.2264 11.6745 18.1691 11.6701 18.1313C11.6678 18.1124 11.6662 18.0984 11.6653 18.0899C11.6648 18.0856 11.6645 18.0827 11.6643 18.0813C11.6642 18.0805 11.6642 18.0802 11.6642 18.0802C11.6642 18.0802 11.6642 18.0803 11.6642 18.0804C11.6642 18.0805 11.6643 18.0807 11.6643 18.0808C11.6643 18.0809 11.6643 18.081 11.6643 18.081C11.6643 18.0811 11.6643 18.0813 10.0732 18.25C8.48216 18.4187 8.48218 18.4188 8.48219 18.419C8.4822 18.419 8.48222 18.4192 8.48223 18.4193C8.48225 18.4195 8.48228 18.4198 8.48231 18.4201C8.48237 18.4207 8.48244 18.4213 8.48252 18.4221C8.48269 18.4236 8.48289 18.4255 8.48314 18.4278C8.48364 18.4324 8.48431 18.4384 8.48515 18.446C8.48683 18.461 8.48921 18.4818 8.49229 18.5078C8.49846 18.5598 8.50748 18.633 8.51948 18.7228C8.54338 18.9016 8.57958 19.1502 8.62923 19.4318C8.72266 19.9616 8.88433 20.7324 9.14808 21.3654L12.1019 20.1346ZM20 33.25C20.9995 32.0006 20.9998 32.0008 21 32.001C21.0001 32.0011 21.0003 32.0013 21.0004 32.0013C21.0006 32.0015 21.0007 32.0016 21.0008 32.0016C21.0008 32.0016 21.0005 32.0014 20.9998 32.0008C20.9984 31.9997 20.9955 31.9973 20.9911 31.9938C20.9825 31.9868 20.9681 31.975 20.9482 31.9586C20.9083 31.9257 20.8466 31.8741 20.7652 31.8045C20.6024 31.6653 20.3613 31.4541 20.0599 31.1759C19.4565 30.6189 18.6148 29.7962 17.6779 28.7469C15.7956 26.6387 13.5726 23.6642 12.1019 20.1346L9.14808 21.3654C10.8024 25.3358 13.2669 28.6113 15.2909 30.8781C16.3071 32.0163 17.2232 32.9123 17.8894 33.5272C18.2227 33.835 18.4943 34.073 18.6855 34.2365C18.7811 34.3183 18.8567 34.3815 18.9099 34.4255C18.9366 34.4475 18.9576 34.4647 18.9728 34.477C18.9804 34.4832 18.9865 34.4882 18.9912 34.4919C18.9935 34.4938 18.9954 34.4953 18.997 34.4966C18.9977 34.4972 18.9984 34.4977 18.999 34.4982C18.9993 34.4984 18.9997 34.4987 18.9998 34.4989C19.0002 34.4991 19.0005 34.4994 20 33.25ZM27.8816 20.1756C26.4114 23.9984 24.1986 26.9542 22.3416 28.9598C21.4153 29.9602 20.5846 30.7165 19.9919 31.218C19.6958 31.4686 19.4599 31.6549 19.3021 31.7757C19.2232 31.836 19.164 31.88 19.1266 31.9073C19.1079 31.921 19.0947 31.9305 19.0873 31.9358C19.0835 31.9385 19.0812 31.9401 19.0804 31.9407C19.08 31.9409 19.08 31.941 19.0803 31.9407C19.0805 31.9406 19.0808 31.9404 19.0811 31.9402C19.0813 31.9401 19.0816 31.9398 19.0817 31.9398C19.0821 31.9395 19.0825 31.9392 20 33.25C20.9175 34.5608 20.918 34.5605 20.9184 34.5601C20.9186 34.56 20.9191 34.5597 20.9195 34.5594C20.9202 34.5589 20.921 34.5583 20.922 34.5577C20.9238 34.5564 20.926 34.5548 20.9287 34.5529C20.9339 34.5493 20.9406 34.5445 20.9488 34.5386C20.9652 34.5269 20.9874 34.5108 21.0153 34.4905C21.071 34.4498 21.1491 34.3918 21.2472 34.3166C21.4435 34.1664 21.7202 33.9474 22.0589 33.6609C22.7357 33.0882 23.6628 32.2429 24.6896 31.1339C26.7389 28.9208 29.2136 25.6266 30.8684 21.3244L27.8816 20.1756ZM28.2327 18.6836C28.1474 19.2107 28.0224 19.8096 27.8816 20.1756L30.8684 21.3243C31.1375 20.6245 31.3032 19.7412 31.3916 19.1946L28.2327 18.6836Z" fill="black" mask="url(#path-1-inside-1_261_1328)"/>
<circle cx="19.9999" cy="17" r="4.16667" fill="black"/>
</svg>
