<svg width="24" height="24" viewBox="0 0 24 24" fill="none" xmlns="http://www.w3.org/2000/svg">
<path d="M21.999 8C21.9991 7.81852 21.9497 7.64045 21.856 7.485L19.147 2.97C18.9686 2.67484 18.7171 2.43057 18.417 2.26069C18.1168 2.09081 17.7779 2.00104 17.433 2H6.56502C5.86702 2 5.21002 2.372 4.85102 2.971L2.14202 7.485C2.04837 7.64045 1.99893 7.81852 1.99902 8C1.99902 9.005 2.38502 9.914 2.99902 10.618V20C2.99902 20.2652 3.10438 20.5196 3.29192 20.7071C3.47945 20.8946 3.73381 21 3.99902 21H11.999C12.2642 21 12.5186 20.8946 12.7061 20.7071C12.8937 20.5196 12.999 20.2652 12.999 20V15H16.999V20C16.999 20.2652 17.1044 20.5196 17.2919 20.7071C17.4795 20.8946 17.7338 21 17.999 21H19.999C20.2642 21 20.5186 20.8946 20.7061 20.7071C20.8937 20.5196 20.999 20.2652 20.999 20V10.618C21.613 9.914 21.999 9.005 21.999 8ZM19.983 8.251C19.9215 8.73391 19.6861 9.17785 19.321 9.49977C18.9558 9.82169 18.4858 9.99953 17.999 10C16.896 10 15.999 9.103 15.999 8C15.999 7.932 15.974 7.872 15.96 7.808L15.98 7.804L15.219 4H17.433L19.983 8.251ZM10.006 8.065L10.818 4H13.179L13.992 8.065C13.957 9.138 13.079 10 11.999 10C10.919 10 10.041 9.138 10.006 8.065ZM6.56502 4H8.77902L8.01902 7.804L8.03902 7.808C8.02402 7.872 7.99902 7.932 7.99902 8C7.99902 9.103 7.10202 10 5.99902 10C5.51221 9.99953 5.04226 9.82169 4.67708 9.49977C4.31191 9.17785 4.07654 8.73391 4.01502 8.251L6.56502 4ZM9.99902 16H5.99902V13H9.99902V16Z" fill="#BDBDBD"/>
</svg>
