<svg width="165" height="148" viewBox="0 0 165 148" fill="none" xmlns="http://www.w3.org/2000/svg">
<g clip-path="url(#clip0_335_3582)">
<rect width="165" height="148" fill="white"/>
<rect x="22" y="44.564" width="113.516" height="26.9833" rx="13.4917" fill="#D9D9D9" fill-opacity="0.2" stroke="#D9D9D9" stroke-width="2" stroke-dasharray="4 4"/>
<rect x="22" y="80.7925" width="113.516" height="26.9833" rx="13.4917" fill="#D9D9D9" fill-opacity="0.2" stroke="#D9D9D9" stroke-width="2" stroke-dasharray="4 4"/>
<rect x="22" y="117.026" width="113.516" height="26.9833" rx="13.4917" fill="#D9D9D9" fill-opacity="0.2" stroke="#D9D9D9" stroke-width="2" stroke-dasharray="4 4"/>
<mask id="path-4-inside-1_335_3582" fill="white">
<path fill-rule="evenodd" clip-rule="evenodd" d="M85.624 25.2445C85.6239 25.2444 85.6238 25.2444 85.6238 25.2443L78.98 13.5073C78.5971 12.8307 77.6225 12.8307 77.2395 13.5073L70.5958 25.2443C70.5958 25.2444 70.5957 25.2444 70.5956 25.2445C70.5954 25.2446 70.5953 25.2448 70.5953 25.245V25.2451V33.5232C70.5953 33.8774 70.7827 34.2052 71.0879 34.3849L77.6024 38.2211C77.9155 38.4055 78.3041 38.4055 78.6172 38.2211L85.1317 34.3849C85.4369 34.2052 85.6242 33.8774 85.6242 33.5232V25.2451V25.245C85.6242 25.2448 85.6241 25.2446 85.624 25.2445Z"/>
</mask>
<path fill-rule="evenodd" clip-rule="evenodd" d="M85.624 25.2445C85.6239 25.2444 85.6238 25.2444 85.6238 25.2443L78.98 13.5073C78.5971 12.8307 77.6225 12.8307 77.2395 13.5073L70.5958 25.2443C70.5958 25.2444 70.5957 25.2444 70.5956 25.2445C70.5954 25.2446 70.5953 25.2448 70.5953 25.245V25.2451V33.5232C70.5953 33.8774 70.7827 34.2052 71.0879 34.3849L77.6024 38.2211C77.9155 38.4055 78.3041 38.4055 78.6172 38.2211L85.1317 34.3849C85.4369 34.2052 85.6242 33.8774 85.6242 33.5232V25.2451V25.245C85.6242 25.2448 85.6241 25.2446 85.624 25.2445Z" fill="#D9D9D9" fill-opacity="0.2"/>
<path d="M85.1317 34.3849L84.6242 33.5232L85.1317 34.3849ZM77.6024 38.2211L78.1098 37.3594L77.6024 38.2211ZM78.6172 38.2211L79.1247 39.0828L78.6172 38.2211ZM70.5958 25.2443L69.7256 24.7517L70.5958 25.2443ZM85.6238 25.2443L84.7535 25.7369L85.6238 25.2443ZM71.0879 34.3849L70.5805 35.2466L71.0879 34.3849ZM78.98 13.5073L79.8503 13.0147L78.98 13.5073ZM77.2395 13.5073L76.3693 13.0147L77.2395 13.5073ZM71.5953 25.2451V25.2451H69.5953V25.2451H71.5953ZM71.5953 25.245V25.245H69.5953V25.245H71.5953ZM71.5953 25.245C71.5953 25.3502 71.5787 25.4535 71.5473 25.5512L69.6435 24.9384C69.612 25.0362 69.5953 25.1396 69.5953 25.245H71.5953ZM71.3431 25.9087C71.2749 25.9855 71.1944 26.0523 71.1038 26.1057L70.0874 24.3833C69.9967 24.4368 69.9161 24.5037 69.8478 24.5805L71.3431 25.9087ZM71.1038 26.1057C71.149 26.0791 71.1919 26.049 71.2321 26.0158L69.9592 24.4731C69.9994 24.44 70.0423 24.4099 70.0874 24.3833L71.1038 26.1057ZM71.3784 25.8668C71.4109 25.826 71.4402 25.7826 71.4661 25.7369L69.7256 24.7517C69.7514 24.706 69.7807 24.6627 69.8131 24.6219L71.3784 25.8668ZM71.4661 25.7369L72.1304 24.5632L70.3899 23.578L69.7256 24.7517L71.4661 25.7369ZM73.0163 22.9983L74.345 20.6509L72.6045 19.6656L71.2758 22.0131L73.0163 22.9983ZM75.2308 19.0859L76.5596 16.7385L74.8191 15.7533L73.4903 18.1007L75.2308 19.0859ZM77.4454 15.1736L78.1098 13.9999L76.3693 13.0147L75.7049 14.1884L77.4454 15.1736ZM78.1098 13.9999C78.1115 13.9968 78.1126 13.9954 78.1127 13.9953C78.1129 13.9951 78.1125 13.9956 78.1116 13.9965C78.1095 13.9983 78.1073 13.9996 78.106 14.0002L77.2926 12.173C76.9183 12.3397 76.59 12.6247 76.3693 13.0147L78.1098 13.9999ZM78.1135 14.0002C78.1122 13.9996 78.1101 13.9983 78.108 13.9965C78.1071 13.9956 78.1067 13.9951 78.1068 13.9953C78.107 13.9954 78.108 13.9968 78.1098 13.9999L79.8503 13.0147C79.6296 12.6247 79.3013 12.3397 78.927 12.173L78.1135 14.0002ZM78.1098 13.9999L78.7742 15.1736L80.5147 14.1884L79.8503 13.0147L78.1098 13.9999ZM79.66 16.7385L80.9887 19.0859L82.7292 18.1007L81.4005 15.7533L79.66 16.7385ZM81.8746 20.6509L83.2033 22.9983L84.9438 22.013L83.6151 19.6656L81.8746 20.6509ZM84.0891 24.5632L84.7535 25.7369L86.494 24.7517L85.8296 23.578L84.0891 24.5632ZM84.7535 25.7369C84.7794 25.7826 84.8086 25.8258 84.8408 25.8664L86.4068 24.6223C86.439 24.6628 86.4682 24.7061 86.494 24.7517L84.7535 25.7369ZM84.9863 26.0148C85.0265 26.0481 85.0696 26.0785 85.1155 26.1056L86.1324 24.3834C86.1782 24.4105 86.2214 24.4409 86.2615 24.4741L84.9863 26.0148ZM85.1155 26.1056C85.0249 26.0521 84.9445 25.9853 84.8763 25.9086L86.3719 24.5807C86.3037 24.5038 86.2231 24.437 86.1324 24.3834L85.1155 26.1056ZM84.6723 25.5511C84.6408 25.4534 84.6242 25.3502 84.6242 25.245H86.6242C86.6242 25.1397 86.6076 25.0363 86.5761 24.9385L84.6723 25.5511ZM84.6242 25.245V25.245H86.6242V25.245H84.6242ZM84.6242 25.2451V25.2451H86.6242V25.2451H84.6242ZM84.6242 25.2451V26.4868H86.6242V25.2451H84.6242ZM84.6242 28.1425V30.6259H86.6242V28.1425H84.6242ZM84.6242 32.2815V33.5232H86.6242V32.2815H84.6242ZM84.6242 33.5232L84.6243 33.5231L86.5279 34.1364C86.5909 33.9409 86.6242 33.7342 86.6242 33.5232H84.6242ZM84.6242 33.5233L84.6242 33.5232L85.6391 35.2466C85.8209 35.1395 85.9821 35.0059 86.1186 34.8524L84.6242 33.5233ZM84.6242 33.5232L83.6471 34.0986L84.6619 35.822L85.6391 35.2466L84.6242 33.5232ZM82.3442 34.8659L80.3898 36.0168L81.4047 37.7401L83.359 36.5893L82.3442 34.8659ZM79.087 36.784L78.1098 37.3594L79.1247 39.0828L80.1018 38.5074L79.087 36.784ZM78.1098 37.3594L78.1099 37.3594L78.5322 39.3143C78.7379 39.2699 78.9382 39.1926 79.1247 39.0828L78.1098 37.3594ZM78.1097 37.3594L78.1098 37.3594L77.0949 39.0828C77.2814 39.1926 77.4816 39.2699 77.6874 39.3143L78.1097 37.3594ZM78.1098 37.3594L77.1326 36.784L76.1178 38.5074L77.0949 39.0828L78.1098 37.3594ZM75.8297 36.0168L73.8754 34.8659L72.8605 36.5893L74.8149 37.7401L75.8297 36.0168ZM72.5725 34.0986L71.5953 33.5232L70.5805 35.2466L71.5576 35.822L72.5725 34.0986ZM71.5953 33.5232L71.5954 33.5233L70.1009 34.8524C70.2375 35.0059 70.3987 35.1395 70.5805 35.2466L71.5953 33.5232ZM71.5953 33.5231L71.5953 33.5232H69.5953C69.5953 33.7342 69.6286 33.9409 69.6917 34.1364L71.5953 33.5231ZM71.5953 33.5232V32.2815H69.5953V33.5232H71.5953ZM71.5953 30.6259V28.1425H69.5953V30.6259H71.5953ZM71.5953 26.4868V25.2451H69.5953V26.4868H71.5953ZM85.1317 34.3849L84.1168 32.6615L85.1317 34.3849ZM77.6024 38.2211L78.6172 36.4977L77.6024 38.2211ZM78.6172 38.2211L79.6321 39.9445L78.6172 38.2211ZM70.5958 25.2443L68.8553 24.2591L70.5958 25.2443ZM85.6238 25.2443L83.8833 26.2295L85.6238 25.2443ZM71.0879 34.3849L70.073 36.1083L71.0879 34.3849ZM78.98 13.5073L80.7205 12.5221L78.98 13.5073ZM77.2395 13.5073L75.499 12.5221L77.2395 13.5073ZM72.5953 25.2451V25.2451H68.5953V25.2451H72.5953ZM72.5953 25.245V25.245H68.5953V25.245H72.5953ZM72.5953 25.245C72.5953 25.4555 72.5621 25.6621 72.4992 25.8576L68.6916 24.632C68.6286 24.8276 68.5953 25.0343 68.5953 25.245H72.5953ZM72.0908 26.5728C71.9544 26.7264 71.7933 26.86 71.612 26.967L69.5792 23.522C69.3978 23.6291 69.2367 23.7628 69.1002 23.9164L72.0908 26.5728ZM71.612 26.967C71.7024 26.9136 71.7882 26.8534 71.8686 26.7871L69.3228 23.7018C69.4032 23.6355 69.4889 23.5753 69.5792 23.522L71.612 26.967ZM72.1611 26.4893C72.226 26.4077 72.2846 26.3209 72.3363 26.2295L68.8553 24.2591C68.907 24.1678 68.9656 24.081 69.0304 23.9995L72.1611 26.4893ZM72.3363 26.2295L73.0007 25.0558L69.5197 23.0854L68.8553 24.2591L72.3363 26.2295ZM73.8865 23.4909L75.2153 21.1435L71.7343 19.173L70.4055 21.5204L73.8865 23.4909ZM76.1011 19.5785L77.4298 17.2311L73.9488 15.2607L72.6201 17.6081L76.1011 19.5785ZM78.3157 15.6662L78.98 14.4925L75.499 12.5221L74.8347 13.6958L78.3157 15.6662ZM78.98 14.4925C78.8755 14.6771 78.7086 14.8265 78.5127 14.9137L76.8859 11.2595C76.3215 11.5107 75.8282 11.9406 75.499 12.5221L78.98 14.4925ZM77.7068 14.9137C77.511 14.8265 77.344 14.6771 77.2395 14.4925L80.7205 12.5221C80.3914 11.9406 79.898 11.5107 79.3337 11.2595L77.7068 14.9137ZM77.2395 14.4925L77.9039 15.6662L81.3849 13.6958L80.7205 12.5221L77.2395 14.4925ZM78.7897 17.2311L80.1185 19.5785L83.5995 17.6081L82.2707 15.2607L78.7897 17.2311ZM81.0043 21.1435L82.3331 23.4909L85.8141 21.5204L84.4853 19.173L81.0043 21.1435ZM83.2189 25.0558L83.8833 26.2295L87.3643 24.2591L86.6999 23.0854L83.2189 25.0558ZM83.8833 26.2295C83.9349 26.3208 83.9934 26.4073 84.0579 26.4885L87.1898 24.0003C87.2542 24.0814 87.3126 24.1678 87.3643 24.2591L83.8833 26.2295ZM84.3486 26.7851C84.429 26.8517 84.5153 26.9125 84.6071 26.9667L86.6409 23.5223C86.7325 23.5765 86.8188 23.6373 86.8991 23.7038L84.3486 26.7851ZM84.6071 26.9667C84.4258 26.8597 84.2649 26.726 84.1285 26.5725L87.1197 23.9167C86.9833 23.7631 86.8222 23.6294 86.6409 23.5223L84.6071 26.9667ZM83.7204 25.8575C83.6575 25.662 83.6242 25.4555 83.6242 25.245H87.6242C87.6242 25.0344 87.591 24.8277 87.5281 24.6322L83.7204 25.8575ZM83.6242 25.245V25.245H87.6242V25.245H83.6242ZM83.6242 25.2451V25.2451H87.6242V25.2451H83.6242ZM83.6242 25.2451V26.4868H87.6242V25.2451H83.6242ZM83.6242 28.1425V30.6259H87.6242V28.1425H83.6242ZM83.6242 32.2815V33.5232H87.6242V32.2815H83.6242ZM83.6242 33.5232C83.6242 33.418 83.6409 33.3145 83.6725 33.2165L87.4797 34.4431C87.5743 34.1497 87.6242 33.8396 87.6242 33.5232H83.6242ZM83.877 32.8587C83.9454 32.7818 84.0262 32.7149 84.1168 32.6615L86.1465 36.1083C86.4192 35.9477 86.661 35.7473 86.8659 35.517L83.877 32.8587ZM84.1168 32.6615L83.1396 33.237L85.1694 36.6837L86.1465 36.1083L84.1168 32.6615ZM81.8368 34.0042L79.8824 35.1551L81.9121 38.6018L83.8665 37.451L81.8368 34.0042ZM78.5795 35.9223L77.6024 36.4977L79.6321 39.9445L80.6092 39.3691L78.5795 35.9223ZM77.6024 36.4977C77.6953 36.443 77.7956 36.4043 77.8987 36.382L78.7434 40.2918C79.052 40.2251 79.3525 40.1092 79.6321 39.9445L77.6024 36.4977ZM78.3208 36.382C78.424 36.4043 78.5243 36.443 78.6172 36.4977L76.5875 39.9445C76.8671 40.1092 77.1675 40.2251 77.4762 40.2918L78.3208 36.382ZM78.6172 36.4977L77.6401 35.9223L75.6103 39.3691L76.5875 39.9445L78.6172 36.4977ZM76.3372 35.1551L74.3828 34.0042L72.3531 37.451L74.3074 38.6018L76.3372 35.1551ZM73.0799 33.237L72.1028 32.6615L70.073 36.1083L71.0502 36.6837L73.0799 33.237ZM72.1028 32.6615C72.1934 32.7149 72.2742 32.7818 72.3426 32.8587L69.3537 35.517C69.5586 35.7473 69.8004 35.9477 70.073 36.1083L72.1028 32.6615ZM72.5471 33.2165C72.5787 33.3145 72.5953 33.418 72.5953 33.5232H68.5953C68.5953 33.8396 68.6453 34.1497 68.7398 34.4431L72.5471 33.2165ZM72.5953 33.5232V32.2815H68.5953V33.5232H72.5953ZM72.5953 30.6259V28.1425H68.5953V30.6259H72.5953ZM72.5953 26.4868V25.2451H68.5953V26.4868H72.5953Z" fill="#D9D9D9" mask="url(#path-4-inside-1_335_3582)"/>
<mask id="path-6-inside-2_335_3582" fill="white">
<path fill-rule="evenodd" clip-rule="evenodd" d="M80.8659 28.099C80.8656 28.0988 80.8654 28.0985 80.8653 28.0982L78.5447 22.5636C78.3732 22.1547 77.7939 22.1547 77.6224 22.5636L75.3018 28.0982C75.3017 28.0985 75.3015 28.0988 75.3012 28.099C75.3007 28.0994 75.3004 28.1 75.3004 28.1006V28.1015V32.2835C75.3004 32.4359 75.3699 32.58 75.4893 32.6749L77.7724 34.4899C77.9546 34.6347 78.2125 34.6347 78.3947 34.4899L80.6778 32.6749C80.7971 32.58 80.8667 32.4359 80.8667 32.2835V28.1015V28.1006C80.8667 28.1 80.8664 28.0994 80.8659 28.099Z"/>
</mask>
<path fill-rule="evenodd" clip-rule="evenodd" d="M80.8659 28.099C80.8656 28.0988 80.8654 28.0985 80.8653 28.0982L78.5447 22.5636C78.3732 22.1547 77.7939 22.1547 77.6224 22.5636L75.3018 28.0982C75.3017 28.0985 75.3015 28.0988 75.3012 28.099C75.3007 28.0994 75.3004 28.1 75.3004 28.1006V28.1015V32.2835C75.3004 32.4359 75.3699 32.58 75.4893 32.6749L77.7724 34.4899C77.9546 34.6347 78.2125 34.6347 78.3947 34.4899L80.6778 32.6749C80.7971 32.58 80.8667 32.4359 80.8667 32.2835V28.1015V28.1006C80.8667 28.1 80.8664 28.0994 80.8659 28.099Z" fill="#D9D9D9" fill-opacity="0.2"/>
<path d="M80.6778 32.6749L80.0555 31.8921L80.6778 32.6749ZM78.3947 34.4899L77.7724 33.7071L78.3947 34.4899ZM75.3018 28.0982L76.224 28.4849L75.3018 28.0982ZM80.8653 28.0982L79.9431 28.4849L80.8653 28.0982ZM75.4893 32.6749L74.867 33.4577L75.4893 32.6749ZM78.5447 22.5636L79.4669 22.1769L78.5447 22.5636ZM77.6224 22.5636L76.7002 22.1769L77.6224 22.5636ZM76.3004 28.1015V28.1013H74.3004V28.1015H76.3004ZM76.3004 28.1009V28.1006H74.3004V28.1009H76.3004ZM76.3004 28.1006C76.3004 28.1914 76.288 28.2808 76.2643 28.3666L74.3367 27.8336C74.3128 27.9197 74.3004 28.0095 74.3004 28.1006H76.3004ZM76.1093 28.688C76.0569 28.7599 75.9946 28.8253 75.9236 28.8817L74.6788 27.3163C74.6075 27.373 74.5449 27.4386 74.4923 27.5109L76.1093 28.688ZM75.9236 28.8817C75.9631 28.8503 76.0001 28.8161 76.0342 28.7793L74.5686 27.4184C74.6026 27.3817 74.6394 27.3476 74.6788 27.3163L75.9236 28.8817ZM76.1554 28.6192C76.1815 28.5763 76.2045 28.5315 76.224 28.4849L74.3796 27.7115C74.399 27.6652 74.4219 27.6205 74.4479 27.5778L76.1554 28.6192ZM76.224 28.4849L76.9202 26.8245L75.0758 26.0512L74.3796 27.7115L76.224 28.4849ZM77.8485 24.6107L78.5447 22.9503L76.7002 22.1769L76.004 23.8373L77.8485 24.6107ZM78.5447 22.9503C78.4998 23.0572 78.413 23.1499 78.3039 23.2044L77.4094 21.4156C77.1017 21.5695 76.8452 21.8313 76.7002 22.1769L78.5447 22.9503ZM77.8631 23.2044C77.7541 23.1499 77.6672 23.0572 77.6224 22.9503L79.4669 22.1769C79.3219 21.8313 79.0654 21.5695 78.7577 21.4156L77.8631 23.2044ZM77.6224 22.9503L78.3186 24.6107L80.1631 23.8373L79.4669 22.1769L77.6224 22.9503ZM79.2469 26.8245L79.9431 28.4849L81.7875 27.7115L81.0913 26.0512L79.2469 26.8245ZM79.9431 28.4849C79.9626 28.5315 79.9855 28.5763 80.0116 28.6191L81.7192 27.5779C81.7452 27.6205 81.7681 27.6652 81.7875 27.7115L79.9431 28.4849ZM80.1328 28.7792C80.1669 28.816 80.2039 28.8503 80.2435 28.8818L81.4883 27.3163C81.5277 27.3477 81.5645 27.3818 81.5985 27.4185L80.1328 28.7792ZM80.2435 28.8818C80.1725 28.8253 80.1102 28.76 80.0578 28.688L81.6747 27.5109C81.6221 27.4386 81.5596 27.373 81.4883 27.3163L80.2435 28.8818ZM79.9028 28.3666C79.879 28.2808 79.8667 28.1914 79.8667 28.1006H81.8667C81.8667 28.0095 81.8543 27.9197 81.8304 27.8336L79.9028 28.3666ZM79.8667 28.1006V28.1009H81.8667V28.1006H79.8667ZM79.8667 28.1013V28.1015H81.8667V28.1013H79.8667ZM79.8667 28.1015V29.3561H81.8667V28.1015H79.8667ZM79.8667 31.0289V32.2835H81.8667V31.0289H79.8667ZM79.8667 32.2835C79.8667 32.2381 79.8729 32.1932 79.8848 32.1502L81.8124 32.6833C81.8481 32.5543 81.8667 32.4199 81.8667 32.2835H79.8667ZM79.9625 31.9892C79.9887 31.9531 80.02 31.9204 80.0555 31.8921L81.3001 33.4577C81.4069 33.3727 81.5006 33.2745 81.5793 33.1664L79.9625 31.9892ZM80.0555 31.8921L79.3706 32.4366L80.6152 34.0022L81.3001 33.4577L80.0555 31.8921ZM78.4573 33.1626L77.7724 33.7071L79.017 35.2727L79.7019 34.7282L78.4573 33.1626ZM77.7724 33.7071C77.8259 33.6646 77.8871 33.634 77.9512 33.6164L78.4814 35.5449C78.6725 35.4923 78.8553 35.4012 79.017 35.2727L77.7724 33.7071ZM78.2159 33.6164C78.28 33.634 78.3412 33.6646 78.3947 33.7071L77.1501 35.2727C77.3118 35.4012 77.4946 35.4923 77.6857 35.5449L78.2159 33.6164ZM78.3947 33.7071L77.7098 33.1626L76.4652 34.7282L77.1501 35.2727L78.3947 33.7071ZM76.7965 32.4366L76.1116 31.8921L74.867 33.4577L75.5519 34.0022L76.7965 32.4366ZM76.1116 31.8921C76.1471 31.9204 76.1784 31.9531 76.2046 31.9892L74.5878 33.1664C74.6665 33.2745 74.7602 33.3727 74.867 33.4577L76.1116 31.8921ZM76.2823 32.1502C76.2942 32.1932 76.3004 32.2381 76.3004 32.2835H74.3004C74.3004 32.4199 74.319 32.5543 74.3547 32.6833L76.2823 32.1502ZM76.3004 32.2835V31.0289H74.3004V32.2835H76.3004ZM76.3004 29.3561V28.1015H74.3004V29.3561H76.3004ZM80.6778 32.6749L79.4332 31.1093L80.6778 32.6749ZM78.3947 34.4899L77.1501 32.9244L78.3947 34.4899ZM75.3018 28.0982L77.1462 28.8716L75.3018 28.0982ZM80.8653 28.0982L79.0209 28.8716L80.8653 28.0982ZM75.4893 32.6749L74.2447 34.2404L75.4893 32.6749ZM78.5447 22.5636L80.3891 21.7903L78.5447 22.5636ZM77.6224 22.5636L75.778 21.7903L77.6224 22.5636ZM77.3004 28.1015V28.1013H73.3004V28.1015H77.3004ZM77.3004 28.1009V28.1006H73.3004V28.1009H77.3004ZM77.3004 28.1006C77.3004 28.2823 77.2756 28.4613 77.2282 28.6331L73.3728 27.5671C73.3252 27.7392 73.3004 27.9186 73.3004 28.1006H77.3004ZM76.9178 29.2765C76.8129 29.4206 76.6882 29.5514 76.546 29.6644L74.0564 26.5336C73.9139 26.6469 73.789 26.778 73.6839 26.9224L76.9178 29.2765ZM76.546 29.6644C76.6249 29.6017 76.6988 29.5332 76.767 29.4598L73.8359 26.7379C73.9039 26.6646 73.9776 26.5963 74.0564 26.5336L76.546 29.6644ZM77.0092 29.1398C77.0614 29.0542 77.1072 28.9646 77.1462 28.8716L73.4574 27.3249C73.4963 27.232 73.5421 27.1426 73.5941 27.0572L77.0092 29.1398ZM77.1462 28.8716L77.8424 27.2112L74.1536 25.6645L73.4574 27.3249L77.1462 28.8716ZM78.7707 24.9974L79.4669 23.337L75.778 21.7903L75.0818 23.4506L78.7707 24.9974ZM79.4669 23.337C79.3272 23.6701 79.0687 23.9401 78.7512 24.0988L76.9621 20.5212C76.446 20.7793 76.0178 21.2183 75.778 21.7903L79.4669 23.337ZM77.4159 24.0988C77.0984 23.9401 76.8399 23.6701 76.7002 23.337L80.3891 21.7903C80.1493 21.2183 79.7211 20.7793 79.205 20.5212L77.4159 24.0988ZM76.7002 23.337L77.3964 24.9974L81.0853 23.4506L80.3891 21.7903L76.7002 23.337ZM78.3247 27.2112L79.0209 28.8716L82.7097 27.3249L82.0135 25.6645L78.3247 27.2112ZM79.0209 28.8716C79.0599 28.9646 79.1057 29.0542 79.1579 29.1397L82.573 27.0572C82.625 27.1426 82.6708 27.232 82.7097 27.3249L79.0209 28.8716ZM79.3999 29.4595C79.4681 29.533 79.5421 29.6016 79.6212 29.6645L82.1106 26.5336C82.1896 26.5964 82.2634 26.6648 82.3314 26.7381L79.3999 29.4595ZM79.6212 29.6645C79.479 29.5515 79.3543 29.4206 79.2494 29.2766L82.4832 26.9223C82.3781 26.7779 82.2531 26.6468 82.1106 26.5336L79.6212 29.6645ZM78.9389 28.6331C78.8914 28.4614 78.8667 28.2823 78.8667 28.1006H82.8667C82.8667 27.9186 82.8419 27.7392 82.7943 27.5671L78.9389 28.6331ZM78.8667 28.1006V28.1009H82.8667V28.1006H78.8667ZM78.8667 28.1013V28.1015H82.8667V28.1013H78.8667ZM78.8667 28.1015V29.3561H82.8667V28.1015H78.8667ZM78.8667 31.0289V32.2835H82.8667V31.0289H78.8667ZM78.8667 32.2835C78.8667 32.1471 78.8853 32.0127 78.9209 31.8837L82.7763 32.9498C82.8357 32.7349 82.8667 32.5109 82.8667 32.2835H78.8667ZM79.154 31.4006C79.2328 31.2924 79.3265 31.1942 79.4332 31.1093L81.9224 34.2404C82.1004 34.0989 82.2565 33.9353 82.3877 33.755L79.154 31.4006ZM79.4332 31.1093L78.7483 31.6538L81.2375 34.785L81.9224 34.2404L79.4332 31.1093ZM77.835 32.3799L77.1501 32.9244L79.6393 36.0555L80.3242 35.511L77.835 32.3799ZM77.1501 32.9244C77.3111 32.7963 77.4943 32.7049 77.6861 32.6522L78.7464 36.5091C79.0653 36.4214 79.37 36.2695 79.6393 36.0555L77.1501 32.9244ZM78.481 32.6522C78.6728 32.7049 78.8559 32.7963 79.017 32.9244L76.5278 36.0555C76.7971 36.2695 77.1018 36.4214 77.4206 36.5091L78.481 32.6522ZM79.017 32.9244L78.3321 32.3799L75.8429 35.511L76.5278 36.0555L79.017 32.9244ZM77.4188 31.6538L76.7339 31.1093L74.2447 34.2404L74.9296 34.785L77.4188 31.6538ZM76.7339 31.1093C76.8406 31.1942 76.9343 31.2924 77.0131 31.4006L73.7794 33.755C73.9106 33.9353 74.0667 34.0989 74.2447 34.2404L76.7339 31.1093ZM77.2461 31.8837C77.2818 32.0127 77.3004 32.1471 77.3004 32.2835H73.3004C73.3004 32.5109 73.3314 32.7349 73.3908 32.9498L77.2461 31.8837ZM77.3004 32.2835V31.0289H73.3004V32.2835H77.3004ZM77.3004 29.3561V28.1015H73.3004V29.3561H77.3004Z" fill="#D9D9D9" mask="url(#path-6-inside-2_335_3582)"/>
<path d="M24.9806 19.8729L24.9104 19.7413C23.5143 17.0201 23.5839 15.4611 24.8819 13.2465C26.1798 11.0319 26.4189 8.73427 25.1194 6.29971C23.2931 2.87815 19.4362 1.72409 15.554 3.79624C12.0009 5.69278 10.3203 9.408 12.1687 13.2405L14.998 11.7303C13.8155 9.0924 15.0301 7.09134 16.8067 6.14307C18.8465 5.05432 21.2056 5.51421 22.3412 7.64171C23.266 9.37442 22.9346 11.1295 22.062 12.6098C20.6252 15.0394 20.0321 16.9906 22.2126 21.1812L22.2828 21.3128L24.9806 19.8729ZM27.2074 27.0543C28.3041 26.4689 28.7233 25.0897 28.138 23.993C27.5526 22.8964 26.1734 22.4771 25.0767 23.0625C23.9801 23.6478 23.5389 25.0388 24.1462 26.1237C24.7096 27.2321 26.1108 27.6396 27.2074 27.0543Z" fill="#D9D9D9"/>
<path d="M151.253 77.9641L151.312 77.8271C152.566 75.0377 153.827 74.1188 156.368 73.7502C158.908 73.3815 160.852 72.1339 161.943 69.5989C163.475 66.0362 161.969 62.3027 157.927 60.5636C154.227 58.972 150.275 59.9785 148.435 63.815L151.382 65.0825C152.704 62.5119 155.026 62.2115 156.875 63.0073C158.999 63.9211 160.113 66.0511 159.16 68.2664C158.384 70.0706 156.806 70.9074 155.105 71.1499C152.31 71.5443 150.415 72.299 148.503 76.6186L148.444 76.7556L151.253 77.9641ZM147.033 84.187C148.175 84.6782 149.514 84.1447 150.005 83.0028C150.497 81.8609 149.963 80.5217 148.821 80.0305C147.679 79.5392 146.317 80.0629 145.849 81.2146C145.335 82.3467 145.891 83.6957 147.033 84.187Z" fill="#D9D9D9"/>
</g>
<defs>
<clipPath id="clip0_335_3582">
<rect width="165" height="148" fill="white"/>
</clipPath>
</defs>
</svg>
