<svg width="240" height="240" viewBox="0 0 240 240" fill="none" xmlns="http://www.w3.org/2000/svg">
<rect width="240" height="240" fill="white"/>
<rect x="63" y="79.564" width="113.516" height="26.9833" rx="13.4917" fill="#D9D9D9" fill-opacity="0.2" stroke="#D9D9D9" stroke-width="2" stroke-dasharray="4 4"/>
<rect x="63" y="115.792" width="113.516" height="26.9833" rx="13.4917" fill="#D9D9D9" fill-opacity="0.2" stroke="#D9D9D9" stroke-width="2" stroke-dasharray="4 4"/>
<rect x="63" y="152.026" width="113.516" height="26.9833" rx="13.4917" fill="#D9D9D9" fill-opacity="0.2" stroke="#D9D9D9" stroke-width="2" stroke-dasharray="4 4"/>
<mask id="path-4-inside-1_194_791" fill="white">
<path fill-rule="evenodd" clip-rule="evenodd" d="M127.029 60.2446C127.029 60.2446 127.028 60.2445 127.028 60.2444L120.385 48.5074C120.002 47.8309 119.027 47.8309 118.644 48.5074L112 60.2444C112 60.2445 112 60.2446 112 60.2446C112 60.2447 112 60.2449 112 60.2451V60.2453V68.5233C112 68.8775 112.187 69.2053 112.493 69.385L119.007 73.2212C119.32 73.4057 119.709 73.4057 120.022 73.2212L126.536 69.385C126.842 69.2053 127.029 68.8775 127.029 68.5233V60.2453V60.2451C127.029 60.2449 127.029 60.2447 127.029 60.2446Z"/>
</mask>
<path fill-rule="evenodd" clip-rule="evenodd" d="M127.029 60.2446C127.029 60.2446 127.028 60.2445 127.028 60.2444L120.385 48.5074C120.002 47.8309 119.027 47.8309 118.644 48.5074L112 60.2444C112 60.2445 112 60.2446 112 60.2446C112 60.2447 112 60.2449 112 60.2451V60.2453V68.5233C112 68.8775 112.187 69.2053 112.493 69.385L119.007 73.2212C119.32 73.4057 119.709 73.4057 120.022 73.2212L126.536 69.385C126.842 69.2053 127.029 68.8775 127.029 68.5233V60.2453V60.2451C127.029 60.2449 127.029 60.2447 127.029 60.2446Z" fill="#D9D9D9" fill-opacity="0.2"/>
<path d="M126.536 69.385L126.029 68.5233L126.536 69.385ZM119.007 73.2212L119.514 72.3596L119.007 73.2212ZM120.022 73.2212L120.529 74.0829L120.022 73.2212ZM112 60.2444L111.13 59.7518L112 60.2444ZM127.028 60.2444L126.158 60.737L127.028 60.2444ZM112.493 69.385L111.985 70.2467L112.493 69.385ZM120.385 48.5074L121.255 48.0148L120.385 48.5074ZM118.644 48.5074L117.774 48.0148L118.644 48.5074ZM113 60.2453V60.2452H111V60.2453H113ZM113 60.2451V60.2451H111V60.2451H113ZM113 60.2451C113 60.3503 112.983 60.4536 112.952 60.5513L111.048 59.9385C111.017 60.0364 111 60.1397 111 60.2451H113ZM112.748 60.9088C112.68 60.9856 112.599 61.0524 112.508 61.1059L111.492 59.3834C111.401 59.4369 111.321 59.5038 111.252 59.5806L112.748 60.9088ZM112.508 61.1059C112.554 61.0792 112.597 61.0491 112.637 61.0159L111.364 59.4732C111.404 59.4401 111.447 59.41 111.492 59.3834L112.508 61.1059ZM112.783 60.8669C112.816 60.8261 112.845 60.7827 112.871 60.737L111.13 59.7518C111.156 59.7062 111.185 59.6628 111.218 59.622L112.783 60.8669ZM112.871 60.737L113.535 59.5633L111.795 58.5781L111.13 59.7518L112.871 60.737ZM114.421 57.9984L115.75 55.651L114.009 54.6658L112.68 57.0132L114.421 57.9984ZM116.636 54.086L117.964 51.7386L116.224 50.7534L114.895 53.1008L116.636 54.086ZM118.85 50.1737L119.514 49L117.774 48.0148L117.11 49.1885L118.85 50.1737ZM119.514 49C119.516 48.9969 119.517 48.9956 119.517 48.9954C119.518 48.9953 119.517 48.9957 119.516 48.9966C119.514 48.9984 119.512 48.9997 119.511 49.0003L118.697 47.1732C118.323 47.3398 117.995 47.6248 117.774 48.0148L119.514 49ZM119.518 49.0003C119.517 48.9997 119.515 48.9984 119.513 48.9966C119.512 48.9957 119.511 48.9953 119.512 48.9954C119.512 48.9956 119.513 48.9969 119.514 49L121.255 48.0148C121.034 47.6248 120.706 47.3398 120.332 47.1732L119.518 49.0003ZM119.514 49L120.179 50.1737L121.919 49.1885L121.255 48.0148L119.514 49ZM121.065 51.7386L122.393 54.086L124.134 53.1008L122.805 50.7534L121.065 51.7386ZM123.279 55.651L124.608 57.9984L126.348 57.0132L125.02 54.6658L123.279 55.651ZM125.494 59.5633L126.158 60.737L127.899 59.7518L127.234 58.5781L125.494 59.5633ZM126.158 60.737C126.184 60.7827 126.213 60.826 126.246 60.8665L127.811 59.6224C127.844 59.663 127.873 59.7062 127.899 59.7518L126.158 60.737ZM126.391 61.0149C126.431 61.0482 126.474 61.0786 126.52 61.1057L127.537 59.3835C127.583 59.4106 127.626 59.441 127.666 59.4742L126.391 61.0149ZM126.52 61.1057C126.43 61.0522 126.349 60.9854 126.281 60.9087L127.777 59.5808C127.708 59.5039 127.628 59.4371 127.537 59.3835L126.52 61.1057ZM126.077 60.5513C126.046 60.4535 126.029 60.3503 126.029 60.2451H128.029C128.029 60.1398 128.012 60.0364 127.981 59.9386L126.077 60.5513ZM126.029 60.2451V60.2451H128.029V60.2451H126.029ZM126.029 60.2452V60.2453H128.029V60.2452H126.029ZM126.029 60.2453V61.487H128.029V60.2453H126.029ZM126.029 63.1426V65.626H128.029V63.1426H126.029ZM126.029 67.2816V68.5233H128.029V67.2816H126.029ZM126.029 68.5233L126.029 68.5232L127.933 69.1366C127.996 68.941 128.029 68.7343 128.029 68.5233H126.029ZM126.029 68.5234L126.029 68.5233L127.044 70.2467C127.226 70.1396 127.387 70.0061 127.523 69.8525L126.029 68.5234ZM126.029 68.5233L125.052 69.0988L126.067 70.8222L127.044 70.2467L126.029 68.5233ZM123.749 69.866L121.795 71.0169L122.809 72.7403L124.764 71.5894L123.749 69.866ZM120.492 71.7841L119.514 72.3596L120.529 74.0829L121.506 73.5075L120.492 71.7841ZM119.514 72.3596L119.515 72.3595L119.937 74.3144C120.143 74.27 120.343 74.1927 120.529 74.0829L119.514 72.3596ZM119.514 72.3595L119.514 72.3596L118.5 74.0829C118.686 74.1928 118.886 74.27 119.092 74.3145L119.514 72.3595ZM119.514 72.3596L118.537 71.7841L117.522 73.5075L118.5 74.0829L119.514 72.3596ZM117.234 71.0169L115.28 69.866L114.265 71.5894L116.22 72.7403L117.234 71.0169ZM113.977 69.0988L113 68.5233L111.985 70.2467L112.962 70.8222L113.977 69.0988ZM113 68.5233L113 68.5234L111.506 69.8525C111.642 70.0061 111.803 70.1396 111.985 70.2467L113 68.5233ZM113 68.5232L113 68.5233H111C111 68.7343 111.033 68.941 111.096 69.1366L113 68.5232ZM113 68.5233V67.2816H111V68.5233H113ZM113 65.626V63.1426H111V65.626H113ZM113 61.487V60.2453H111V61.487H113ZM126.536 69.385L125.521 67.6616L126.536 69.385ZM119.007 73.2212L120.022 71.4979L119.007 73.2212ZM120.022 73.2212L121.037 74.9446L120.022 73.2212ZM112 60.2444L110.26 59.2592L112 60.2444ZM127.028 60.2444L125.288 61.2296L127.028 60.2444ZM112.493 69.385L111.478 71.1084L112.493 69.385ZM120.385 48.5074L122.125 47.5222L120.385 48.5074ZM118.644 48.5074L116.904 47.5222L118.644 48.5074ZM114 60.2453V60.2452H110V60.2453H114ZM114 60.2451V60.2451H110V60.2451H114ZM114 60.2451C114 60.4556 113.967 60.6622 113.904 60.8578L110.096 59.6321C110.033 59.8277 110 60.0344 110 60.2451H114ZM113.495 61.5729C113.359 61.7265 113.198 61.8601 113.017 61.9671L110.984 58.5221C110.802 58.6292 110.641 58.7629 110.505 58.9165L113.495 61.5729ZM113.017 61.9671C113.107 61.9138 113.193 61.8536 113.273 61.7872L110.727 58.7019C110.808 58.6356 110.894 58.5754 110.984 58.5221L113.017 61.9671ZM113.566 61.4894C113.631 61.4078 113.689 61.321 113.741 61.2296L110.26 59.2592C110.312 59.1679 110.37 59.0811 110.435 58.9996L113.566 61.4894ZM113.741 61.2296L114.405 60.0559L110.924 58.0855L110.26 59.2592L113.741 61.2296ZM115.291 58.491L116.62 56.1436L113.139 54.1732L111.81 56.5206L115.291 58.491ZM117.506 54.5786L118.835 52.2312L115.353 50.2608L114.025 52.6082L117.506 54.5786ZM119.72 50.6663L120.385 49.4926L116.904 47.5222L116.239 48.6959L119.72 50.6663ZM120.385 49.4926C120.28 49.6772 120.113 49.8266 119.917 49.9138L118.291 46.2596C117.726 46.5108 117.233 46.9407 116.904 47.5222L120.385 49.4926ZM119.112 49.9138C118.916 49.8266 118.749 49.6772 118.644 49.4926L122.125 47.5222C121.796 46.9407 121.303 46.5108 120.738 46.2596L119.112 49.9138ZM118.644 49.4926L119.309 50.6663L122.79 48.6959L122.125 47.5222L118.644 49.4926ZM120.194 52.2312L121.523 54.5786L125.004 52.6082L123.675 50.2608L120.194 52.2312ZM122.409 56.1436L123.738 58.491L127.219 56.5206L125.89 54.1732L122.409 56.1436ZM124.624 60.0559L125.288 61.2296L128.769 59.2592L128.105 58.0855L124.624 60.0559ZM125.288 61.2296C125.34 61.3209 125.398 61.4075 125.463 61.4886L128.594 59.0004C128.659 59.0815 128.717 59.168 128.769 59.2592L125.288 61.2296ZM125.753 61.7853C125.834 61.8518 125.92 61.9126 126.012 61.9668L128.046 58.5224C128.137 58.5766 128.223 58.6374 128.304 58.7039L125.753 61.7853ZM126.012 61.9668C125.83 61.8598 125.67 61.7262 125.533 61.5726L128.524 58.9168C128.388 58.7632 128.227 58.6295 128.046 58.5224L126.012 61.9668ZM125.125 60.8576C125.062 60.6621 125.029 60.4556 125.029 60.2451H129.029C129.029 60.0345 128.996 59.8279 128.933 59.6323L125.125 60.8576ZM125.029 60.2451V60.2451H129.029V60.2451H125.029ZM125.029 60.2452V60.2453H129.029V60.2452H125.029ZM125.029 60.2453V61.487H129.029V60.2453H125.029ZM125.029 63.1426V65.626H129.029V63.1426H125.029ZM125.029 67.2816V68.5233H129.029V67.2816H125.029ZM125.029 68.5233C125.029 68.4182 125.046 68.3146 125.077 68.2166L128.884 69.4432C128.979 69.1498 129.029 68.8397 129.029 68.5233H125.029ZM125.282 67.8589C125.35 67.7819 125.431 67.715 125.521 67.6616L127.551 71.1084C127.824 70.9479 128.066 70.7475 128.271 70.5171L125.282 67.8589ZM125.521 67.6616L124.544 68.2371L126.574 71.6838L127.551 71.1084L125.521 67.6616ZM123.241 69.0043L121.287 70.1552L123.317 73.602L125.271 72.4511L123.241 69.0043ZM119.984 70.9224L119.007 71.4979L121.037 74.9446L122.014 74.3692L119.984 70.9224ZM119.007 71.4979C119.1 71.4431 119.2 71.4044 119.303 71.3821L120.148 75.2919C120.457 75.2252 120.757 75.1093 121.037 74.9446L119.007 71.4979ZM119.725 71.3821C119.829 71.4044 119.929 71.4431 120.022 71.4979L117.992 74.9446C118.272 75.1093 118.572 75.2252 118.881 75.2919L119.725 71.3821ZM120.022 71.4979L119.045 70.9224L117.015 74.3692L117.992 74.9446L120.022 71.4979ZM117.742 70.1552L115.787 69.0043L113.758 72.4511L115.712 73.602L117.742 70.1552ZM114.485 68.2371L113.507 67.6616L111.478 71.1084L112.455 71.6838L114.485 68.2371ZM113.507 67.6616C113.598 67.715 113.679 67.7819 113.747 67.8589L110.758 70.5171C110.963 70.7475 111.205 70.9479 111.478 71.1084L113.507 67.6616ZM113.952 68.2166C113.983 68.3146 114 68.4182 114 68.5233H110C110 68.8397 110.05 69.1498 110.144 69.4432L113.952 68.2166ZM114 68.5233V67.2816H110V68.5233H114ZM114 65.626V63.1426H110V65.626H114ZM114 61.487V60.2453H110V61.487H114Z" fill="#D9D9D9" mask="url(#path-4-inside-1_194_791)"/>
<mask id="path-6-inside-2_194_791" fill="white">
<path fill-rule="evenodd" clip-rule="evenodd" d="M122.271 63.0994C122.27 63.0992 122.27 63.0989 122.27 63.0986L119.949 57.564C119.778 57.1551 119.199 57.1551 119.027 57.564L116.706 63.0986C116.706 63.0989 116.706 63.0992 116.706 63.0994C116.705 63.0998 116.705 63.1004 116.705 63.101V63.1019V67.2839C116.705 67.4363 116.775 67.5804 116.894 67.6752L119.177 69.4903C119.359 69.6351 119.617 69.6351 119.799 69.4903L122.082 67.6752C122.202 67.5804 122.271 67.4363 122.271 67.2839V63.1019V63.101C122.271 63.1004 122.271 63.0998 122.271 63.0994Z"/>
</mask>
<path fill-rule="evenodd" clip-rule="evenodd" d="M122.271 63.0994C122.27 63.0992 122.27 63.0989 122.27 63.0986L119.949 57.564C119.778 57.1551 119.199 57.1551 119.027 57.564L116.706 63.0986C116.706 63.0989 116.706 63.0992 116.706 63.0994C116.705 63.0998 116.705 63.1004 116.705 63.101V63.1019V67.2839C116.705 67.4363 116.775 67.5804 116.894 67.6752L119.177 69.4903C119.359 69.6351 119.617 69.6351 119.799 69.4903L122.082 67.6752C122.202 67.5804 122.271 67.4363 122.271 67.2839V63.1019V63.101C122.271 63.1004 122.271 63.0998 122.271 63.0994Z" fill="#D9D9D9" fill-opacity="0.2"/>
<path d="M122.082 67.6752L121.46 66.8925L122.082 67.6752ZM119.799 69.4903L119.177 68.7075L119.799 69.4903ZM116.706 63.0986L117.629 63.4853L116.706 63.0986ZM122.27 63.0986L121.348 63.4853L122.27 63.0986ZM116.894 67.6752L116.272 68.458L116.894 67.6752ZM119.949 57.564L120.872 57.1773L119.949 57.564ZM119.027 57.564L118.105 57.1773L119.027 57.564ZM117.705 63.1019V63.1016H115.705V63.1019H117.705ZM117.705 63.1013V63.101H115.705V63.1013H117.705ZM117.705 63.101C117.705 63.1917 117.693 63.2812 117.669 63.367L115.741 62.834C115.717 62.9201 115.705 63.0099 115.705 63.101H117.705ZM117.514 63.6883C117.462 63.7603 117.399 63.8256 117.328 63.8821L116.083 62.3167C116.012 62.3734 115.95 62.439 115.897 62.5113L117.514 63.6883ZM117.328 63.8821C117.368 63.8507 117.405 63.8164 117.439 63.7797L115.973 62.4187C116.007 62.3821 116.044 62.348 116.083 62.3167L117.328 63.8821ZM117.56 63.6195C117.586 63.5767 117.609 63.5318 117.629 63.4853L115.784 62.7119C115.804 62.6655 115.827 62.6209 115.853 62.5782L117.56 63.6195ZM117.629 63.4853L118.325 61.8249L116.48 61.0515L115.784 62.7119L117.629 63.4853ZM119.253 59.611L119.949 57.9507L118.105 57.1773L117.409 58.8377L119.253 59.611ZM119.949 57.9507C119.905 58.0575 119.818 58.1502 119.709 58.2048L118.814 56.416C118.506 56.5699 118.25 56.8316 118.105 57.1773L119.949 57.9507ZM119.268 58.2048C119.159 58.1502 119.072 58.0575 119.027 57.9507L120.872 57.1773C120.727 56.8316 120.47 56.5699 120.162 56.416L119.268 58.2048ZM119.027 57.9507L119.723 59.611L121.568 58.8377L120.872 57.1773L119.027 57.9507ZM120.652 61.8249L121.348 63.4853L123.192 62.7119L122.496 61.0515L120.652 61.8249ZM121.348 63.4853C121.367 63.5318 121.39 63.5767 121.416 63.6195L123.124 62.5782C123.15 62.6209 123.173 62.6655 123.192 62.7119L121.348 63.4853ZM121.537 63.7796C121.572 63.8163 121.609 63.8506 121.648 63.8821L122.893 62.3167C122.932 62.348 122.969 62.3822 123.003 62.4188L121.537 63.7796ZM121.648 63.8821C121.577 63.8257 121.515 63.7603 121.462 63.6884L123.079 62.5112C123.027 62.439 122.964 62.3734 122.893 62.3167L121.648 63.8821ZM121.307 63.367C121.284 63.2812 121.271 63.1917 121.271 63.101H123.271C123.271 63.0099 123.259 62.9201 123.235 62.834L121.307 63.367ZM121.271 63.101V63.1013H123.271V63.101H121.271ZM121.271 63.1016V63.1019H123.271V63.1016H121.271ZM121.271 63.1019V64.3565H123.271V63.1019H121.271ZM121.271 66.0293V67.2839H123.271V66.0293H121.271ZM121.271 67.2839C121.271 67.2384 121.278 67.1936 121.289 67.1506L123.217 67.6836C123.253 67.5547 123.271 67.4203 123.271 67.2839H121.271ZM121.367 66.9896C121.393 66.9535 121.425 66.9207 121.46 66.8925L122.705 68.458C122.812 68.3731 122.905 68.2749 122.984 68.1668L121.367 66.9896ZM121.46 66.8925L120.775 67.437L122.02 69.0025L122.705 68.458L121.46 66.8925ZM119.862 68.163L119.177 68.7075L120.422 70.2731L121.107 69.7286L119.862 68.163ZM119.177 68.7075C119.231 68.665 119.292 68.6344 119.356 68.6168L119.886 70.5452C120.077 70.4927 120.26 70.4016 120.422 70.2731L119.177 68.7075ZM119.621 68.6168C119.685 68.6344 119.746 68.665 119.799 68.7075L118.555 70.2731C118.716 70.4016 118.899 70.4927 119.09 70.5452L119.621 68.6168ZM119.799 68.7075L119.114 68.163L117.87 69.7286L118.555 70.2731L119.799 68.7075ZM118.201 67.437L117.516 66.8925L116.272 68.458L116.957 69.0025L118.201 67.437ZM117.516 66.8925C117.552 66.9207 117.583 66.9535 117.609 66.9896L115.992 68.1668C116.071 68.2749 116.165 68.3731 116.272 68.458L117.516 66.8925ZM117.687 67.1506C117.699 67.1936 117.705 67.2384 117.705 67.2839H115.705C115.705 67.4203 115.724 67.5547 115.759 67.6836L117.687 67.1506ZM117.705 67.2839V66.0293H115.705V67.2839H117.705ZM117.705 64.3565V63.1019H115.705V64.3565H117.705ZM122.082 67.6752L120.838 66.1097L122.082 67.6752ZM119.799 69.4903L118.555 67.9247L119.799 69.4903ZM116.706 63.0986L118.551 63.8719L116.706 63.0986ZM122.27 63.0986L120.426 63.8719L122.27 63.0986ZM116.894 67.6752L115.649 69.2408L116.894 67.6752ZM119.949 57.564L121.794 56.7906L119.949 57.564ZM119.027 57.564L117.183 56.7906L119.027 57.564ZM118.705 63.1019V63.1016H114.705V63.1019H118.705ZM118.705 63.1013V63.101H114.705V63.1013H118.705ZM118.705 63.101C118.705 63.2827 118.68 63.4617 118.633 63.6334L114.777 62.5675C114.73 62.7396 114.705 62.919 114.705 63.101H118.705ZM118.322 64.2769C118.218 64.4209 118.093 64.5518 117.951 64.6648L115.461 61.534C115.319 61.6473 115.194 61.7784 115.089 61.9227L118.322 64.2769ZM117.951 64.6648C118.03 64.602 118.103 64.5336 118.172 64.4601L115.241 61.7383C115.309 61.665 115.382 61.5966 115.461 61.534L117.951 64.6648ZM118.414 64.1402C118.466 64.0546 118.512 63.965 118.551 63.8719L114.862 62.3252C114.901 62.2324 114.947 62.1429 114.999 62.0575L118.414 64.1402ZM118.551 63.8719L119.247 62.2116L115.558 60.6648L114.862 62.3252L118.551 63.8719ZM120.175 59.9977L120.872 58.3373L117.183 56.7906L116.486 58.451L120.175 59.9977ZM120.872 58.3373C120.732 58.6705 120.473 58.9404 120.156 59.0992L118.367 55.5216C117.851 55.7797 117.422 56.2187 117.183 56.7906L120.872 58.3373ZM118.821 59.0992C118.503 58.9404 118.245 58.6705 118.105 58.3373L121.794 56.7906C121.554 56.2187 121.126 55.7797 120.61 55.5216L118.821 59.0992ZM118.105 58.3373L118.801 59.9977L122.49 58.451L121.794 56.7906L118.105 58.3373ZM119.729 62.2116L120.426 63.8719L124.114 62.3252L123.418 60.6648L119.729 62.2116ZM120.426 63.8719C120.465 63.965 120.51 64.0546 120.563 64.1401L123.978 62.0576C124.03 62.143 124.075 62.2324 124.114 62.3252L120.426 63.8719ZM120.805 64.4599C120.873 64.5334 120.947 64.602 121.026 64.6649L123.515 61.5339C123.594 61.5967 123.668 61.6651 123.736 61.7385L120.805 64.4599ZM121.026 64.6649C120.884 64.5518 120.759 64.421 120.654 64.2769L123.888 61.9227C123.783 61.7783 123.658 61.6472 123.515 61.5339L121.026 64.6649ZM120.344 63.6335C120.296 63.4617 120.271 63.2827 120.271 63.101H124.271C124.271 62.919 124.247 62.7396 124.199 62.5674L120.344 63.6335ZM120.271 63.101V63.1013H124.271V63.101H120.271ZM120.271 63.1016V63.1019H124.271V63.1016H120.271ZM120.271 63.1019V64.3565H124.271V63.1019H120.271ZM120.271 66.0293V67.2839H124.271V66.0293H120.271ZM120.271 67.2839C120.271 67.1475 120.29 67.013 120.326 66.884L124.181 67.9502C124.24 67.7353 124.271 67.5112 124.271 67.2839H120.271ZM120.559 66.401C120.637 66.2928 120.731 66.1945 120.838 66.1097L123.327 69.2408C123.505 69.0993 123.661 68.9356 123.792 68.7554L120.559 66.401ZM120.838 66.1097L120.153 66.6542L122.642 69.7853L123.327 69.2408L120.838 66.1097ZM119.24 67.3802L118.555 67.9247L121.044 71.0559L121.729 70.5113L119.24 67.3802ZM118.555 67.9247C118.716 67.7967 118.899 67.7053 119.091 67.6526L120.151 71.5095C120.47 71.4218 120.775 71.2699 121.044 71.0559L118.555 67.9247ZM119.886 67.6526C120.077 67.7053 120.261 67.7967 120.422 67.9247L117.932 71.0559C118.202 71.2699 118.506 71.4218 118.825 71.5095L119.886 67.6526ZM120.422 67.9247L119.737 67.3802L117.248 70.5113L117.932 71.0559L120.422 67.9247ZM118.823 66.6542L118.139 66.1097L115.649 69.2408L116.334 69.7853L118.823 66.6542ZM118.139 66.1097C118.245 66.1945 118.339 66.2928 118.418 66.401L115.184 68.7554C115.315 68.9356 115.471 69.0993 115.649 69.2408L118.139 66.1097ZM118.651 66.884C118.686 67.013 118.705 67.1475 118.705 67.2839H114.705C114.705 67.5112 114.736 67.7353 114.796 67.9501L118.651 66.884ZM118.705 67.2839V66.0293H114.705V67.2839H118.705ZM118.705 64.3565V63.1019H114.705V64.3565H118.705Z" fill="#D9D9D9" mask="url(#path-6-inside-2_194_791)"/>
<path d="M69.9806 54.873L69.9104 54.7414C68.5143 52.0202 68.5839 50.4612 69.8819 48.2466C71.1798 46.032 71.4189 43.7344 70.1194 41.2998C68.2931 37.8783 64.4362 36.7242 60.554 38.7964C57.0009 40.6929 55.3203 44.4081 57.1687 48.2406L59.998 46.7304C58.8155 44.0925 60.0301 42.0915 61.8067 41.1432C63.8465 40.0544 66.2056 40.5143 67.3412 42.6418C68.266 44.3745 67.9346 46.1296 67.062 47.6099C65.6252 50.0395 65.0321 51.9907 67.2126 56.1814L67.2828 56.313L69.9806 54.873ZM72.2074 62.0544C73.3041 61.4691 73.7233 60.0898 73.138 58.9932C72.5526 57.8965 71.1734 57.4772 70.0767 58.0626C68.9801 58.648 68.5389 60.0389 69.1462 61.1238C69.7096 62.2322 71.1108 62.6398 72.2074 62.0544Z" fill="#D9D9D9"/>
<path d="M194.253 112.964L194.312 112.827C195.566 110.038 196.827 109.119 199.368 108.75C201.908 108.382 203.852 107.134 204.943 104.599C206.475 101.036 204.969 97.3028 200.927 95.5638C197.227 93.9721 193.275 94.9786 191.435 98.8151L194.382 100.083C195.704 97.512 198.026 97.2116 199.875 98.0074C201.999 98.9212 203.113 101.051 202.16 103.266C201.384 105.071 199.806 105.908 198.105 106.15C195.31 106.544 193.415 107.299 191.503 111.619L191.444 111.756L194.253 112.964ZM190.033 119.187C191.175 119.678 192.514 119.145 193.005 118.003C193.497 116.861 192.963 115.522 191.821 115.031C190.679 114.539 189.317 115.063 188.849 116.215C188.335 117.347 188.891 118.696 190.033 119.187Z" fill="#D9D9D9"/>
</svg>
