<svg width="40" height="40" viewBox="0 0 40 40" fill="none" xmlns="http://www.w3.org/2000/svg">
<rect width="40" height="40" fill="white"/>
<mask id="path-1-inside-1_1608_6370" fill="white">
<rect x="6" y="11" width="28" height="21.3333" rx="1"/>
</mask>
<rect x="6" y="11" width="28" height="21.3333" rx="1" stroke="black" stroke-width="2.4" mask="url(#path-1-inside-1_1608_6370)"/>
<rect x="13.833" y="17.3479" width="12.3333" height="2.33333" rx="1.16667" stroke="black"/>
<rect x="13.833" y="21.5147" width="12.3333" height="2.33333" rx="1.16667" stroke="black"/>
<rect x="13.833" y="25.6809" width="12.3333" height="2.33333" rx="1.16667" stroke="black"/>
<path fill-rule="evenodd" clip-rule="evenodd" d="M20.8332 14.9107C20.8332 14.9107 20.8332 14.9107 20.8332 14.9107L20.4461 14.1446C20.2612 13.7785 19.7385 13.7785 19.5536 14.1446L19.1665 14.9107C19.1665 14.9107 19.1665 14.9107 19.1665 14.9107C19.1665 14.9107 19.1665 14.9107 19.1665 14.9108V14.9108V15.7413C19.1665 15.9094 19.2509 16.0661 19.3911 16.1587L19.7245 16.3786C19.8915 16.4888 20.1082 16.4888 20.2752 16.3786L20.6085 16.1587C20.7488 16.0661 20.8332 15.9094 20.8332 15.7413V14.9108V14.9108C20.8332 14.9107 20.8332 14.9107 20.8332 14.9107Z" fill="black"/>
</svg>
