<svg width="40" height="40" viewBox="0 0 40 40" fill="none" xmlns="http://www.w3.org/2000/svg">
<mask id="path-1-inside-1_261_1313" fill="white">
<path fill-rule="evenodd" clip-rule="evenodd" d="M29.9998 19.6278C29.9997 19.6277 29.9997 19.6277 29.9996 19.6276L20.8701 3.50721C20.4872 2.83093 19.5128 2.83093 19.1299 3.50721L10.0004 19.6276C10.0003 19.6277 10.0003 19.6277 10.0002 19.6278C10.0001 19.6278 10 19.628 10 19.6281V19.6283V30.8278C10 31.1821 10.1874 31.5099 10.4928 31.6896L19.4928 36.9868C19.8058 37.1711 20.1942 37.1711 20.5072 36.9868L29.5072 31.6896C29.8126 31.5099 30 31.1821 30 30.8278V19.6283V19.6281C30 19.628 29.9999 19.6278 29.9998 19.6278Z"/>
</mask>
<path d="M29.5072 31.6896L30.1667 32.8099L29.5072 31.6896ZM19.4928 36.9868L18.8333 38.1072L19.4928 36.9868ZM20.5072 36.9868L21.1667 38.1072L20.5072 36.9868ZM10.0004 19.6276L11.1316 20.2682L10.0004 19.6276ZM29.9996 19.6276L31.1308 18.987L29.9996 19.6276ZM10.4928 31.6896L11.1522 30.5692L10.4928 31.6896ZM20.8701 3.50721L19.739 4.14784L20.8701 3.50721ZM19.739 4.14784L28.8684 20.2682L31.1308 18.987L22.0013 2.86658L19.739 4.14784ZM11.1316 20.2682L20.261 4.14784L17.9987 2.86658L8.86917 18.987L11.1316 20.2682ZM8.7 19.6281V19.6283H11.3V19.6281H8.7ZM8.7 19.6283V30.8278H11.3V19.6283H8.7ZM9.83334 32.8099L18.8333 38.1072L20.1522 35.8665L11.1522 30.5692L9.83334 32.8099ZM21.1667 38.1072L30.1667 32.8099L28.8478 30.5692L19.8478 35.8665L21.1667 38.1072ZM31.3 30.8278V19.6283H28.7V30.8278H31.3ZM31.3 19.6283V19.6281H28.7V19.6283H31.3ZM31.3 19.6281C31.3 19.1658 31.0545 18.7382 30.6553 18.5051L29.3443 20.7504C28.9453 20.5175 28.7 20.0902 28.7 19.6281H31.3ZM30.1667 32.8099C30.8689 32.3966 31.3 31.6426 31.3 30.8278H28.7C28.7 30.7215 28.7562 30.6232 28.8478 30.5692L30.1667 32.8099ZM18.8333 38.1072C19.5534 38.531 20.4466 38.531 21.1667 38.1072L19.8478 35.8665C19.9417 35.8112 20.0583 35.8112 20.1522 35.8665L18.8333 38.1072ZM9.34339 18.5059C8.94489 18.7392 8.7 19.1664 8.7 19.6281H11.3C11.3 20.0896 11.0553 20.5165 10.657 20.7496L9.34339 18.5059ZM8.86917 18.987C8.98207 18.7876 9.14567 18.6217 9.34339 18.5059L10.657 20.7496C10.8549 20.6338 11.0186 20.4677 11.1316 20.2682L8.86917 18.987ZM28.8684 20.2682C28.9798 20.4648 29.1426 20.6326 29.3443 20.7504L30.6553 18.5051C30.8569 18.6228 31.0196 18.7905 31.1308 18.987L28.8684 20.2682ZM8.7 30.8278C8.7 31.6426 9.13112 32.3966 9.83334 32.8099L11.1522 30.5692C11.2438 30.6232 11.3 30.7215 11.3 30.8278H8.7ZM22.0013 2.86658C21.1204 1.31114 18.8796 1.31114 17.9987 2.86658L20.261 4.14784C20.1461 4.35072 19.8539 4.35072 19.739 4.14784L22.0013 2.86658Z" fill="black" mask="url(#path-1-inside-1_261_1313)"/>
</svg>
