<svg width="40" height="40" viewBox="0 0 40 40" fill="none" xmlns="http://www.w3.org/2000/svg">
<rect width="40" height="40" fill="white"/>
<mask id="path-1-inside-1_1608_6386" fill="white">
<path fill-rule="evenodd" clip-rule="evenodd" d="M27.381 19.5427C27.381 19.5427 27.3809 19.5427 27.3809 19.5426L21.0034 8.28147C20.6204 7.60519 19.6461 7.60519 19.2631 8.28147L12.8855 19.5426C12.8855 19.5427 12.8855 19.5427 12.8854 19.5427C12.8853 19.5428 12.8853 19.5429 12.8853 19.543V19.5431V27.5031C12.8853 27.8574 13.0727 28.1852 13.378 28.3649L19.626 32.0424C19.939 32.2266 20.3274 32.2266 20.6405 32.0424L26.8884 28.3649C27.1937 28.1852 27.3812 27.8574 27.3812 27.5031V19.5431V19.543C27.3812 19.5429 27.3811 19.5428 27.381 19.5427Z"/>
</mask>
<path d="M26.8884 28.3649L26.229 27.2446L26.8884 28.3649ZM19.626 32.0424L18.9666 33.1627L19.626 32.0424ZM20.6405 32.0424L21.2999 33.1627L20.6405 32.0424ZM12.8855 19.5426L14.0167 20.1833L12.8855 19.5426ZM27.3809 19.5426L26.2497 20.1833L27.3809 19.5426ZM13.378 28.3649L14.0374 27.2446L13.378 28.3649ZM19.2631 8.28147L18.1319 7.64084L19.2631 8.28147ZM19.8722 8.9221L26.2497 20.1833L28.5121 18.902L22.1346 7.64084L19.8722 8.9221ZM14.0167 20.1833L20.3943 8.9221L18.1319 7.64084L11.7543 18.902L14.0167 20.1833ZM11.5853 19.543V19.5431H14.1853V19.543H11.5853ZM11.5853 19.5431V27.5031H14.1853V19.5431H11.5853ZM12.7186 29.4853L18.9666 33.1627L20.2854 30.922L14.0374 27.2446L12.7186 29.4853ZM21.2999 33.1627L27.5478 29.4853L26.229 27.2446L19.981 30.922L21.2999 33.1627ZM28.6812 27.5031V19.5431H26.0812V27.5031H28.6812ZM28.6812 19.5431V19.543H26.0812V19.5431H28.6812ZM28.6812 19.543C28.6812 19.0827 28.4379 18.6568 28.0414 18.423L26.7206 20.6625C26.3244 20.4288 26.0812 20.003 26.0812 19.543H28.6812ZM27.5478 29.4853C28.25 29.0719 28.6812 28.3179 28.6812 27.5031H26.0812C26.0812 27.3968 26.1374 27.2985 26.229 27.2446L27.5478 29.4853ZM18.9666 33.1627C19.6866 33.5865 20.5798 33.5865 21.2999 33.1627L19.981 30.922C20.075 30.8667 20.1915 30.8667 20.2854 30.922L18.9666 33.1627ZM12.2242 18.4234C11.8282 18.6574 11.5853 19.0831 11.5853 19.543H14.1853C14.1853 20.0027 13.9424 20.4282 13.5466 20.662L12.2242 18.4234ZM11.7543 18.902C11.8664 18.7041 12.0284 18.5391 12.2242 18.4234L13.5466 20.662C13.7425 20.5463 13.9046 20.3812 14.0167 20.1833L11.7543 18.902ZM26.2497 20.1833C26.3606 20.379 26.5219 20.5453 26.7206 20.6625L28.0414 18.423C28.24 18.5401 28.4013 18.7063 28.5121 18.902L26.2497 20.1833ZM11.5853 27.5031C11.5853 28.3179 12.0164 29.0719 12.7186 29.4853L14.0374 27.2446C14.129 27.2985 14.1853 27.3968 14.1853 27.5031H11.5853ZM22.1346 7.64084C21.2537 6.0854 19.0128 6.08541 18.1319 7.64084L20.3943 8.9221C20.2794 9.12498 19.9871 9.12498 19.8722 8.9221L22.1346 7.64084Z" fill="black" mask="url(#path-1-inside-1_1608_6386)"/>
<path d="M18 22.68L20 18L22 22.68V25.2L20 27L18 25.2V22.68Z" stroke="black"/>
</svg>
