<svg width="40" height="40" viewBox="0 0 40 40" fill="none" xmlns="http://www.w3.org/2000/svg">
<mask id="path-1-inside-1_261_1311" fill="white">
<path fill-rule="evenodd" clip-rule="evenodd" d="M30 19.8997C30 19.727 29.9553 19.5573 29.8703 19.4071L20.8703 3.50739C20.4873 2.83087 19.5127 2.83087 19.1297 3.50739L10.1297 19.4071C10.0447 19.5573 10 19.727 10 19.8997V30.8422C10 31.1964 10.1874 31.5242 10.4926 31.7039L19.4926 37.0038C19.8057 37.1882 20.1943 37.1882 20.5074 37.0038L29.5074 31.7039C29.8126 31.5242 30 31.1964 30 30.8422V19.8997Z"/>
</mask>
<path fill-rule="evenodd" clip-rule="evenodd" d="M30 19.8997C30 19.727 29.9553 19.5573 29.8703 19.4071L20.8703 3.50739C20.4873 2.83087 19.5127 2.83087 19.1297 3.50739L10.1297 19.4071C10.0447 19.5573 10 19.727 10 19.8997V30.8422C10 31.1964 10.1874 31.5242 10.4926 31.7039L19.4926 37.0038C19.8057 37.1882 20.1943 37.1882 20.5074 37.0038L29.5074 31.7039C29.8126 31.5242 30 31.1964 30 30.8422V19.8997Z" fill="black"/>
<path d="M29.5074 31.7039L29 30.8422L29.5074 31.7039ZM19.4926 37.0038L20 36.1421L19.4926 37.0038ZM20.5074 37.0038L20 36.1421L20.5074 37.0038ZM10.1297 19.4071L11 19.8997L10.1297 19.4071ZM29.8703 19.4071L29 19.8997L29.8703 19.4071ZM19.1297 3.50739L18.2595 3.01479L19.1297 3.50739ZM20 4L29 19.8997L30.7405 18.9145L21.7405 3.01479L20 4ZM11 19.8997L20 4L18.2595 3.01479L9.25949 18.9145L11 19.8997ZM9 19.8997V30.8422H11V19.8997H9ZM9.98514 32.5656L18.9851 37.8655L20 36.1421L11 30.8422L9.98514 32.5656ZM21.0149 37.8655L30.0149 32.5656L29 30.8422L20 36.1421L21.0149 37.8655ZM31 30.8422V19.8997H29V30.8422H31ZM30.0149 32.5656C30.6253 32.2062 31 31.5506 31 30.8422H29L30.0149 32.5656ZM18.9851 37.8655C19.6114 38.2343 20.3886 38.2343 21.0149 37.8655L20 36.1421L18.9851 37.8655ZM9 30.8422C9 31.5506 9.37473 32.2062 9.98514 32.5656L11 30.8422H9ZM9.25949 18.9145C9.0894 19.215 9 19.5544 9 19.8997H11L9.25949 18.9145ZM29 19.8997H31C31 19.5544 30.9106 19.215 30.7405 18.9145L29 19.8997ZM21.7405 3.01479C20.9746 1.66174 19.0254 1.66174 18.2595 3.01479L20 4V4L21.7405 3.01479Z" fill="black" mask="url(#path-1-inside-1_261_1311)"/>
<path fill-rule="evenodd" clip-rule="evenodd" d="M23.6685 23.4355C23.6683 23.4353 23.6681 23.4351 23.668 23.4348L20.4265 15.7041C20.2551 15.2952 19.6758 15.2952 19.5043 15.7041L16.2629 23.4348C16.2628 23.4351 16.2626 23.4353 16.2624 23.4355C16.262 23.4358 16.2617 23.4363 16.2617 23.4368V23.4376V29.0835C16.2617 29.2359 16.3313 29.38 16.4506 29.4749L19.6543 32.0218C19.8364 32.1666 20.0944 32.1666 20.2766 32.0218L23.4803 29.4749C23.5996 29.38 23.6691 29.2359 23.6691 29.0835V23.4376V23.4368C23.6691 23.4363 23.6689 23.4358 23.6685 23.4355Z" fill="#FEF7B1"/>
</svg>
