<svg width="40" height="40" viewBox="0 0 40 40" fill="none" xmlns="http://www.w3.org/2000/svg">
<mask id="path-1-inside-1_261_1312" fill="white">
<path fill-rule="evenodd" clip-rule="evenodd" d="M29.9989 19.6335C29.9985 19.6333 29.9982 19.633 29.998 19.6327L20.8703 3.50739C20.4873 2.83087 19.5127 2.83087 19.1297 3.50739L10.002 19.6327C10.0018 19.633 10.0015 19.6333 10.0011 19.6335C10.0004 19.6339 10 19.6347 10 19.6355V19.6362V30.84C10 31.1942 10.1874 31.522 10.4926 31.7017L19.4926 37.0016C19.8057 37.186 20.1943 37.186 20.5074 37.0016L29.5074 31.7017C29.8126 31.522 30 31.1942 30 30.84V19.6362V19.6355C30 19.6347 29.9996 19.6339 29.9989 19.6335Z"/>
</mask>
<path fill-rule="evenodd" clip-rule="evenodd" d="M29.9989 19.6335C29.9985 19.6333 29.9982 19.633 29.998 19.6327L20.8703 3.50739C20.4873 2.83087 19.5127 2.83087 19.1297 3.50739L10.002 19.6327C10.0018 19.633 10.0015 19.6333 10.0011 19.6335C10.0004 19.6339 10 19.6347 10 19.6355V19.6362V30.84C10 31.1942 10.1874 31.522 10.4926 31.7017L19.4926 37.0016C19.8057 37.186 20.1943 37.186 20.5074 37.0016L29.5074 31.7017C29.8126 31.522 30 31.1942 30 30.84V19.6362V19.6355C30 19.6347 29.9996 19.6339 29.9989 19.6335Z" fill="black"/>
<path d="M29.5074 31.7017L30.0149 32.5634L29.5074 31.7017ZM19.4926 37.0016L18.9851 37.8633L19.4926 37.0016ZM20.5074 37.0016L20 36.1399L20.5074 37.0016ZM10.002 19.6327L10.8722 20.1253L10.002 19.6327ZM29.998 19.6327L30.8683 19.1401L29.998 19.6327ZM10.4926 31.7017L9.98514 32.5634L10.4926 31.7017ZM20.8703 3.50739L20 4L20.8703 3.50739ZM20 4L29.1278 20.1253L30.8683 19.1401L21.7405 3.01478L20 4ZM10.8722 20.1253L20 4L18.2595 3.01478L9.13173 19.1401L10.8722 20.1253ZM9 19.6355V19.6362H11V19.6355H9ZM9 19.6362V30.84H11V19.6362H9ZM9.98514 32.5634L18.9851 37.8633L20 36.1399L11 30.84L9.98514 32.5634ZM21.0149 37.8633L30.0149 32.5634L29 30.84L20 36.1399L21.0149 37.8633ZM31 30.84V19.6362H29V30.84H31ZM31 19.6362V19.6355H29V19.6362H31ZM31 19.6355C31 19.2805 30.8122 18.952 30.5063 18.7718L29.4915 20.4952C29.1869 20.3159 29 19.9889 29 19.6355H31ZM30.0149 32.5634C30.6253 32.2039 31 31.5484 31 30.84H29L30.0149 32.5634ZM18.9851 37.8633C19.6115 38.2321 20.3885 38.2321 21.0149 37.8633L20 36.1399L18.9851 37.8633ZM9.49371 18.7718C9.1878 18.952 9 19.2805 9 19.6355H11C11 19.9889 10.8131 20.3159 10.5086 20.4952L9.49371 18.7718ZM9.13173 19.1401C9.21799 18.9877 9.34283 18.8607 9.49371 18.7718L10.5086 20.4952C10.6602 20.406 10.7856 20.2784 10.8722 20.1253L9.13173 19.1401ZM29.1278 20.1253C29.2146 20.2787 29.3402 20.4061 29.4915 20.4952L30.5063 18.7718C30.6569 18.8605 30.7818 18.9874 30.8683 19.1401L29.1278 20.1253ZM9 30.84C9 31.5484 9.37473 32.2039 9.98514 32.5634L11 30.84H9ZM21.7405 3.01478C20.9746 1.66174 19.0254 1.66174 18.2595 3.01478L20 4V4L21.7405 3.01478Z" fill="black" mask="url(#path-1-inside-1_261_1312)"/>
</svg>
