<svg width="8" height="13" viewBox="0 0 8 13" fill="none" xmlns="http://www.w3.org/2000/svg">
<path d="M1.38707 1.16045C1.04765 0.877596 0.543196 0.923455 0.260345 1.26288C-0.0225062 1.6023 0.0233526 2.10675 0.362774 2.3896L1.38707 1.16045ZM6.54492 6.50002L7.05707 7.1146L7.79456 6.50002L7.05707 5.88545L6.54492 6.50002ZM0.362774 10.6104C0.0233522 10.8933 -0.0225067 11.3978 0.260345 11.7372C0.543196 12.0766 1.04765 12.1225 1.38707 11.8396L0.362774 10.6104ZM0.362774 2.3896L6.03277 7.1146L7.05707 5.88545L1.38707 1.16045L0.362774 2.3896ZM6.03277 5.88545L0.362774 10.6104L1.38707 11.8396L7.05707 7.1146L6.03277 5.88545Z" fill="black"/>
</svg>
