<svg width="40" height="40" viewBox="0 0 40 40" fill="none" xmlns="http://www.w3.org/2000/svg">
<path d="M15.5122 10.3854C15.1728 10.1026 14.6683 10.1484 14.3855 10.4879C14.1026 10.8273 14.1485 11.3317 14.4879 11.6146L15.5122 10.3854ZM25.8 20L26.3122 20.6146L27.0497 20L26.3122 19.3854L25.8 20ZM14.4879 28.3854C14.1485 28.6683 14.1026 29.1727 14.3855 29.5121C14.6683 29.8516 15.1728 29.8974 15.5122 29.6146L14.4879 28.3854ZM14.4879 11.6146L25.2879 20.6146L26.3122 19.3854L15.5122 10.3854L14.4879 11.6146ZM25.2879 19.3854L14.4879 28.3854L15.5122 29.6146L26.3122 20.6146L25.2879 19.3854Z" fill="black"/>
</svg>
