<svg width="40" height="40" viewBox="0 0 40 40" fill="none" xmlns="http://www.w3.org/2000/svg">
<path d="M25.9547 18.7097C25.9547 23.1077 22.5332 26.6194 18.3774 26.6194C14.2215 26.6194 10.8 23.1077 10.8 18.7097C10.8 14.3117 14.2215 10.8 18.3774 10.8C22.5332 10.8 25.9547 14.3117 25.9547 18.7097Z" stroke="black" stroke-width="1.6"/>
<path d="M24.5841 23.4534C24.2822 23.1308 23.776 23.114 23.4534 23.4159C23.1308 23.7178 23.114 24.224 23.4159 24.5466L24.5841 23.4534ZM29.4536 30.9983C29.7555 31.3208 30.2618 31.3376 30.5844 31.0357C30.907 30.7338 30.9237 30.2276 30.6218 29.905L29.4536 30.9983ZM23.4159 24.5466L29.4536 30.9983L30.6218 29.905L24.5841 23.4534L23.4159 24.5466Z" fill="black"/>
</svg>
