<svg width="40" height="40" viewBox="0 0 40 40" fill="none" xmlns="http://www.w3.org/2000/svg">
<path d="M10 20.2128V29.0001C10 29.5523 10.4477 30.0001 11 30.0001H29C29.5523 30.0001 30 29.5523 30 29.0001V20.2128" stroke="black" stroke-width="1.4"/>
<path d="M20 23.6171V10.4256" stroke="black" stroke-width="1.4"/>
<path d="M13.6306 16.5003C13.382 16.7965 13.4206 17.238 13.7167 17.4865C14.0129 17.7351 14.4544 17.6965 14.7029 17.4004L13.6306 16.5003ZM20.0001 10L20.5363 9.54999L20.0001 8.91114L19.4639 9.54999L20.0001 10ZM25.2972 17.4004C25.5458 17.6965 25.9873 17.7351 26.2834 17.4865C26.5795 17.238 26.6181 16.7965 26.3696 16.5003L25.2972 17.4004ZM14.7029 17.4004L20.5363 10.45L19.4639 9.54999L13.6306 16.5003L14.7029 17.4004ZM19.4639 10.45L25.2972 17.4004L26.3696 16.5003L20.5363 9.54999L19.4639 10.45Z" fill="black"/>
</svg>
