<svg width="25" height="33" viewBox="0 0 25 33" fill="none" xmlns="http://www.w3.org/2000/svg">
<mask id="path-1-inside-1_374_3750" fill="white">
<path fill-rule="evenodd" clip-rule="evenodd" d="M24.3406 14.6683C24.492 13.8975 24.5714 13.1009 24.5714 12.2857C24.5714 5.5005 19.0709 0 12.2857 0C5.5005 0 0 5.5005 0 12.2857C0 12.8058 0.0323157 13.3183 0.0950487 13.8214H0.0899732C0.0899732 13.8214 0.295412 15.759 0.767847 16.8928C4.60713 26.1071 12.2857 32.25 12.2857 32.25C12.2857 32.25 19.9643 26.875 23.8036 16.8928C24.0554 16.2382 24.2339 15.3278 24.3406 14.6683Z"/>
</mask>
<path fill-rule="evenodd" clip-rule="evenodd" d="M24.3406 14.6683C24.492 13.8975 24.5714 13.1009 24.5714 12.2857C24.5714 5.5005 19.0709 0 12.2857 0C5.5005 0 0 5.5005 0 12.2857C0 12.8058 0.0323157 13.3183 0.0950487 13.8214H0.0899732C0.0899732 13.8214 0.295412 15.759 0.767847 16.8928C4.60713 26.1071 12.2857 32.25 12.2857 32.25C12.2857 32.25 19.9643 26.875 23.8036 16.8928C24.0554 16.2382 24.2339 15.3278 24.3406 14.6683Z" fill="white" fill-opacity="0.8"/>
<path d="M24.3406 14.6683L21.3969 14.0898L21.3871 14.1394L21.3791 14.1892L24.3406 14.6683ZM0.0950487 13.8214V16.8214H3.49237L3.07199 13.4502L0.0950487 13.8214ZM0.0899733 13.8214V10.8214H-3.24493L-2.8933 14.1377L0.0899733 13.8214ZM0.767847 16.8928L-2.00138 18.0467L-2.00138 18.0467L0.767847 16.8928ZM12.2857 32.25L10.4116 34.5926L12.1658 35.9959L14.0061 34.7077L12.2857 32.25ZM23.8036 16.8928L21.0035 15.8159L21.0035 15.8159L23.8036 16.8928ZM21.5714 12.2857C21.5714 12.9057 21.5111 13.5086 21.3969 14.0898L27.2843 15.2468C27.473 14.2865 27.5714 13.2961 27.5714 12.2857H21.5714ZM12.2857 3C17.4141 3 21.5714 7.15736 21.5714 12.2857H27.5714C27.5714 3.84365 20.7278 -3 12.2857 -3V3ZM3 12.2857C3 7.15736 7.15736 3 12.2857 3V-3C3.84365 -3 -3 3.84365 -3 12.2857H3ZM3.07199 13.4502C3.02458 13.07 3 12.6814 3 12.2857H-3C-3 12.9302 -2.95995 13.5667 -2.8819 14.1926L3.07199 13.4502ZM0.0899733 16.8214H0.0950487V10.8214H0.0899733V16.8214ZM3.53708 15.739C3.43489 15.4937 3.3099 14.9992 3.20616 14.4109C3.1598 14.148 3.12551 13.9128 3.10302 13.7445C3.09187 13.661 3.08385 13.5958 3.07888 13.5539C3.0764 13.533 3.0747 13.518 3.07376 13.5096C3.0733 13.5054 3.07302 13.5029 3.07293 13.5021C3.07289 13.5017 3.0729 13.5018 3.07295 13.5023C3.07298 13.5025 3.07301 13.5029 3.07306 13.5033C3.07309 13.5036 3.07312 13.5038 3.07315 13.5041C3.07316 13.5043 3.07319 13.5045 3.0732 13.5046C3.07322 13.5048 3.07325 13.5051 0.0899733 13.8214C-2.8933 14.1377 -2.89328 14.138 -2.89325 14.1383C-2.89324 14.1384 -2.89321 14.1387 -2.89318 14.1389C-2.89314 14.1393 -2.89309 14.1397 -2.89304 14.1402C-2.89294 14.1411 -2.89283 14.1422 -2.8927 14.1434C-2.89245 14.1457 -2.89214 14.1486 -2.89178 14.1519C-2.89106 14.1585 -2.89012 14.167 -2.88897 14.1773C-2.88667 14.1978 -2.8835 14.2256 -2.87944 14.2599C-2.87132 14.3284 -2.8596 14.4233 -2.84411 14.5392C-2.81332 14.7697 -2.76672 15.0897 -2.70267 15.4529C-2.58558 16.1169 -2.37163 17.1581 -2.00138 18.0467L3.53708 15.739ZM12.2857 32.25C14.1598 29.9074 14.1603 29.9078 14.1608 29.9082C14.1609 29.9083 14.1614 29.9087 14.1617 29.9089C14.1622 29.9093 14.1626 29.9096 14.1629 29.9099C14.1634 29.9103 14.1635 29.9104 14.1632 29.9101C14.1625 29.9096 14.16 29.9076 14.1558 29.9041C14.1472 29.8972 14.1317 29.8845 14.1094 29.866C14.0648 29.8292 13.9934 29.7696 13.8981 29.6881C13.7072 29.5249 13.4208 29.2741 13.0608 28.9418C12.3398 28.2762 11.3297 27.2891 10.2043 26.0287C7.93761 23.49 5.28453 19.9329 3.53708 15.739L-2.00138 18.0467C0.0904516 23.0671 3.1963 27.1886 5.72869 30.0248C7.00288 31.4519 8.15241 32.5764 8.9911 33.3506C9.41096 33.7382 9.75441 34.0393 9.99848 34.248C10.1206 34.3524 10.2179 34.4338 10.2877 34.4915C10.3226 34.5203 10.3506 34.5432 10.3714 34.5601C10.3817 34.5685 10.3903 34.5755 10.397 34.5809C10.4004 34.5836 10.4033 34.5859 10.4057 34.5879C10.407 34.5889 10.4081 34.5897 10.409 34.5905C10.4095 34.5909 10.4102 34.5914 10.4104 34.5916C10.411 34.5921 10.4116 34.5926 12.2857 32.25ZM21.0035 15.8159C19.2568 20.3574 16.623 23.8796 14.4036 26.2765C13.2981 27.4705 12.3087 28.3708 11.6076 28.964C11.2576 29.2602 10.981 29.4785 10.7996 29.6174C10.7089 29.6868 10.6422 29.7362 10.6022 29.7655C10.5822 29.7801 10.5689 29.7896 10.5627 29.7941C10.5595 29.7964 10.5581 29.7973 10.5586 29.797C10.5588 29.7969 10.5595 29.7964 10.5606 29.7956C10.5611 29.7952 10.5618 29.7948 10.5626 29.7942C10.563 29.7939 10.5637 29.7935 10.5639 29.7933C10.5646 29.7928 10.5653 29.7923 12.2857 32.25C14.0061 34.7077 14.0069 34.7071 14.0077 34.7066C14.008 34.7063 14.0089 34.7057 14.0095 34.7053C14.0108 34.7044 14.0121 34.7035 14.0136 34.7024C14.0166 34.7003 14.0201 34.6979 14.024 34.6951C14.0318 34.6895 14.0415 34.6827 14.053 34.6744C14.0761 34.658 14.1063 34.6361 14.1435 34.6089C14.2179 34.5546 14.3199 34.4788 14.4467 34.3817C14.7002 34.1876 15.0535 33.908 15.4833 33.5443C16.342 32.8178 17.5122 31.7505 18.8062 30.353C21.3859 27.5668 24.5111 23.4104 26.6036 17.9698L21.0035 15.8159ZM21.3791 14.1892C21.2753 14.8304 21.135 15.4741 21.0035 15.8159L26.6036 17.9698C26.9757 17.0022 27.1924 15.8253 27.3021 15.1474L21.3791 14.1892Z" fill="#33DD88" mask="url(#path-1-inside-1_374_3750)"/>
<circle cx="12.2857" cy="12.2857" r="3.61905" fill="#33DD88" stroke="#33DD88" stroke-width="3"/>
</svg>
