<svg width="26" height="33" viewBox="0 0 26 33" fill="none" xmlns="http://www.w3.org/2000/svg">
<mask id="path-1-inside-1_355_3659" fill="white">
<path fill-rule="evenodd" clip-rule="evenodd" d="M25.0549 14.6683C25.2063 13.8975 25.2857 13.1009 25.2857 12.2857C25.2857 5.5005 19.7852 0 13 0C6.2148 0 0.714294 5.5005 0.714294 12.2857C0.714294 12.8058 0.74661 13.3183 0.809343 13.8214H0.804268C0.804268 13.8214 1.00971 15.759 1.48214 16.8928C5.32143 26.1071 13 32.25 13 32.25C13 32.25 20.6786 26.875 24.5179 16.8928C24.7697 16.2382 24.9482 15.3278 25.0549 14.6683Z"/>
</mask>
<path fill-rule="evenodd" clip-rule="evenodd" d="M25.0549 14.6683C25.2063 13.8975 25.2857 13.1009 25.2857 12.2857C25.2857 5.5005 19.7852 0 13 0C6.2148 0 0.714294 5.5005 0.714294 12.2857C0.714294 12.8058 0.74661 13.3183 0.809343 13.8214H0.804268C0.804268 13.8214 1.00971 15.759 1.48214 16.8928C5.32143 26.1071 13 32.25 13 32.25C13 32.25 20.6786 26.875 24.5179 16.8928C24.7697 16.2382 24.9482 15.3278 25.0549 14.6683Z" fill="white" fill-opacity="0.8"/>
<path d="M25.0549 14.6683L22.1112 14.0898L22.1014 14.1394L22.0934 14.1892L25.0549 14.6683ZM0.809343 13.8214V16.8214H4.20667L3.78629 13.4502L0.809343 13.8214ZM0.804268 13.8214V10.8214H-2.53063L-2.17901 14.1377L0.804268 13.8214ZM1.48214 16.8928L-1.28709 18.0467H-1.28709L1.48214 16.8928ZM13 32.25L11.1259 34.5926L12.8801 35.9959L14.7204 34.7077L13 32.25ZM24.5179 16.8928L27.3179 17.9698L24.5179 16.8928ZM22.2857 12.2857C22.2857 12.9057 22.2254 13.5086 22.1112 14.0898L27.9985 15.2468C28.1873 14.2865 28.2857 13.2961 28.2857 12.2857H22.2857ZM13 3C18.1284 3 22.2857 7.15736 22.2857 12.2857H28.2857C28.2857 3.84365 21.4421 -3 13 -3V3ZM3.71429 12.2857C3.71429 7.15736 7.87165 3 13 3V-3C4.55794 -3 -2.28571 3.84365 -2.28571 12.2857H3.71429ZM3.78629 13.4502C3.73887 13.07 3.71429 12.6814 3.71429 12.2857H-2.28571C-2.28571 12.9302 -2.24565 13.5667 -2.1676 14.1926L3.78629 13.4502ZM0.804268 16.8214H0.809343V10.8214H0.804268V16.8214ZM4.25137 15.739C4.14918 15.4937 4.02419 14.9992 3.92046 14.4109C3.87409 14.148 3.8398 13.9128 3.81732 13.7445C3.80616 13.661 3.79814 13.5958 3.79318 13.5539C3.7907 13.533 3.789 13.518 3.78806 13.5096C3.78759 13.5054 3.78731 13.5029 3.78723 13.5021C3.78719 13.5017 3.78719 13.5018 3.78724 13.5023C3.78727 13.5025 3.78731 13.5029 3.78736 13.5033C3.78738 13.5036 3.78741 13.5038 3.78744 13.5041C3.78746 13.5043 3.78748 13.5045 3.78749 13.5046C3.78752 13.5048 3.78755 13.5051 0.804268 13.8214C-2.17901 14.1377 -2.17898 14.138 -2.17895 14.1383C-2.17894 14.1384 -2.17891 14.1387 -2.17889 14.1389C-2.17885 14.1393 -2.1788 14.1397 -2.17875 14.1402C-2.17865 14.1411 -2.17853 14.1422 -2.17841 14.1434C-2.17815 14.1457 -2.17785 14.1486 -2.17749 14.1519C-2.17677 14.1585 -2.17583 14.167 -2.17468 14.1773C-2.17238 14.1978 -2.1692 14.2256 -2.16514 14.2599C-2.15703 14.3284 -2.14531 14.4233 -2.12982 14.5392C-2.09902 14.7697 -2.05242 15.0897 -1.98837 15.4529C-1.87128 16.1169 -1.65733 17.1581 -1.28709 18.0467L4.25137 15.739ZM13 32.25C14.8741 29.9074 14.8746 29.9078 14.8751 29.9082C14.8752 29.9083 14.8757 29.9087 14.876 29.9089C14.8765 29.9093 14.8769 29.9096 14.8772 29.9099C14.8777 29.9103 14.8778 29.9104 14.8775 29.9101C14.8768 29.9096 14.8743 29.9076 14.8701 29.9041C14.8615 29.8972 14.846 29.8845 14.8237 29.866C14.7791 29.8292 14.7077 29.7696 14.6123 29.6881C14.4215 29.5249 14.1351 29.2741 13.7751 28.9418C13.054 28.2762 12.044 27.2891 10.9186 26.0287C8.6519 23.49 5.99882 19.9329 4.25137 15.739L-1.28709 18.0467C0.804745 23.0671 3.9106 27.1886 6.44299 30.0248C7.71718 31.4519 8.86671 32.5764 9.70539 33.3506C10.1253 33.7382 10.4687 34.0393 10.7128 34.248C10.8349 34.3524 10.9322 34.4338 11.002 34.4915C11.0369 34.5203 11.0649 34.5432 11.0857 34.5601C11.096 34.5685 11.1046 34.5755 11.1113 34.5809C11.1147 34.5836 11.1176 34.5859 11.12 34.5879C11.1212 34.5889 11.1223 34.5897 11.1233 34.5905C11.1238 34.5909 11.1245 34.5914 11.1247 34.5916C11.1253 34.5921 11.1259 34.5926 13 32.25ZM21.7178 15.8159C19.9711 20.3574 17.3373 23.8796 15.1179 26.2765C14.0124 27.4705 13.023 28.3708 12.3219 28.964C11.9719 29.2602 11.6953 29.4785 11.5139 29.6174C11.4232 29.6868 11.3565 29.7362 11.3165 29.7655C11.2965 29.7801 11.2832 29.7896 11.277 29.7941C11.2738 29.7964 11.2724 29.7973 11.2729 29.797C11.2731 29.7969 11.2738 29.7964 11.2749 29.7956C11.2754 29.7952 11.2761 29.7948 11.2769 29.7942C11.2773 29.7939 11.278 29.7935 11.2782 29.7933C11.2789 29.7928 11.2796 29.7923 13 32.25C14.7204 34.7077 14.7212 34.7071 14.722 34.7066C14.7223 34.7063 14.7232 34.7057 14.7238 34.7053C14.7251 34.7044 14.7264 34.7035 14.7279 34.7024C14.7309 34.7003 14.7344 34.6979 14.7383 34.6951C14.7461 34.6895 14.7558 34.6827 14.7673 34.6744C14.7904 34.658 14.8206 34.6361 14.8578 34.6089C14.9322 34.5546 15.0342 34.4788 15.161 34.3817C15.4145 34.1876 15.7678 33.908 16.1976 33.5443C17.0562 32.8178 18.2264 31.7505 19.5205 30.353C22.1002 27.5668 25.2253 23.4104 27.3179 17.9698L21.7178 15.8159ZM22.0934 14.1892C21.9896 14.8304 21.8493 15.4741 21.7178 15.8159L27.3179 17.9698C27.69 17.0022 27.9067 15.8253 28.0163 15.1474L22.0934 14.1892Z" fill="#63EA99" mask="url(#path-1-inside-1_355_3659)"/>
<circle cx="13" cy="12.2857" r="5.11905" fill="#63EA99"/>
</svg>
