<svg width="54" height="34" viewBox="0 0 54 34" fill="none" xmlns="http://www.w3.org/2000/svg">
<mask id="path-1-inside-1_613_3763" fill="white">
<path fill-rule="evenodd" clip-rule="evenodd" d="M13.3378 0C5.97153 0 0 5.97153 0 13.3378C0 20.704 5.97153 26.6756 13.3378 26.6756H22.6439L26.2254 33.3561C26.6024 34.0594 27.611 34.0594 27.988 33.3561L31.5695 26.6756H40.6622C48.0285 26.6756 54 20.704 54 13.3378C54 5.97153 48.0285 0 40.6622 0H13.3378Z"/>
</mask>
<path fill-rule="evenodd" clip-rule="evenodd" d="M13.3378 0C5.97153 0 0 5.97153 0 13.3378C0 20.704 5.97153 26.6756 13.3378 26.6756H22.6439L26.2254 33.3561C26.6024 34.0594 27.611 34.0594 27.988 33.3561L31.5695 26.6756H40.6622C48.0285 26.6756 54 20.704 54 13.3378C54 5.97153 48.0285 0 40.6622 0H13.3378Z" fill="#FEF7B1" fill-opacity="0.6"/>
<path d="M22.6439 26.6756L25.2879 25.2581L24.4395 23.6756H22.6439V26.6756ZM26.2254 33.3561L28.8694 31.9386L26.2254 33.3561ZM27.988 33.3561L30.632 34.7735L27.988 33.3561ZM31.5695 26.6756V23.6756H29.7739L28.9255 25.2581L31.5695 26.6756ZM3 13.3378C3 7.62838 7.62839 3 13.3378 3V-3C4.31468 -3 -3 4.31467 -3 13.3378H3ZM13.3378 23.6756C7.62839 23.6756 3 19.0472 3 13.3378H-3C-3 22.3609 4.31468 29.6756 13.3378 29.6756V23.6756ZM22.6439 23.6756H13.3378V29.6756H22.6439V23.6756ZM28.8694 31.9386L25.2879 25.2581L19.9999 28.0931L23.5814 34.7735L28.8694 31.9386ZM25.344 31.9386C26.0982 30.5319 28.1152 30.5319 28.8694 31.9386L23.5814 34.7735C25.0896 37.5869 29.1237 37.5869 30.632 34.7735L25.344 31.9386ZM28.9255 25.2581L25.344 31.9386L30.632 34.7735L34.2135 28.0931L28.9255 25.2581ZM40.6622 23.6756H31.5695V29.6756H40.6622V23.6756ZM51 13.3378C51 19.0472 46.3716 23.6756 40.6622 23.6756V29.6756C49.6853 29.6756 57 22.3609 57 13.3378H51ZM40.6622 3C46.3716 3 51 7.62838 51 13.3378H57C57 4.31467 49.6853 -3 40.6622 -3V3ZM13.3378 3H40.6622V-3H13.3378V3Z" fill="black" mask="url(#path-1-inside-1_613_3763)"/>
<circle cx="13.6067" cy="13" r="7" fill="black"/>
</svg>
