<svg width="24" height="24" viewBox="0 0 24 24" fill="none" xmlns="http://www.w3.org/2000/svg">
<path d="M16.6272 18.1473L16.573 18.0437L16.6004 18.0048L16.6277 17.9659C17.1154 17.7667 17.5766 17.5081 18.001 17.196C18.4109 16.8888 18.6855 16.4405 18.8271 15.8477L18.9303 15.3734V3.12334C18.9303 2.82766 18.842 2.52094 18.6677 2.20894C18.4945 1.89263 18.2735 1.60493 18.0125 1.35598C17.7524 1.10528 17.4575 0.893343 17.137 0.7267C16.8125 0.56158 16.5034 0.47998 16.2063 0.47998H7.43908C7.15924 0.47998 6.85732 0.55678 6.53428 0.71374C6.2102 0.871073 5.91048 1.07428 5.64436 1.3171C5.37955 1.55386 5.1543 1.83144 4.97716 2.13934C4.80244 2.44894 4.7146 2.7475 4.7146 3.04654V15.479C4.7146 15.6883 4.7698 15.9067 4.87156 16.1333C4.97716 16.3608 5.10772 16.5734 5.2642 16.7721C5.42068 16.9766 5.593 17.1595 5.77636 17.3241C5.95972 17.4888 6.1378 17.6251 6.313 17.7293C6.39748 17.7648 6.55252 17.8195 6.77236 17.8891C6.9874 17.9582 7.0882 18.0096 7.07188 18.0432L3.4834 23.4893H5.57668L8.19604 19.6929H15.4224L18.0389 23.4893H20.1596L16.6272 18.1473ZM9.74068 1.5259C9.74068 1.43806 9.78244 1.3483 9.87172 1.2499C9.95764 1.15438 10.0445 1.1083 10.1333 1.1083H13.4847C13.5183 1.1083 13.5908 1.1419 13.6949 1.21054C13.7981 1.28062 13.8504 1.35022 13.8504 1.41982V2.70238C13.8504 2.79022 13.8063 2.87086 13.7204 2.93758C13.632 3.00958 13.5524 3.04606 13.4852 3.04606H10.1084L10.0018 2.96302C9.93988 2.92163 9.88302 2.87314 9.83236 2.81854C9.80444 2.79467 9.78186 2.7652 9.76606 2.73204C9.75027 2.69889 9.74162 2.66278 9.74068 2.62606V1.5259ZM6.36292 5.11246C6.36292 4.93822 6.4042 4.76734 6.48148 4.60078C6.55924 4.43518 6.66052 4.28398 6.78244 4.14238C6.90532 4.00222 7.04932 3.8923 7.21348 3.80446C7.37088 3.71897 7.547 3.67379 7.72612 3.67294H15.8684C16.0229 3.67294 16.1804 3.70942 16.3373 3.77566C16.4948 3.84574 16.6383 3.94366 16.7703 4.06462C16.9018 4.18558 17.005 4.31998 17.0847 4.45918C17.1624 4.5955 17.2008 4.74526 17.2008 4.90222V7.67806C17.2008 7.8355 17.1586 7.9843 17.0712 8.13406C16.9835 8.28639 16.8681 8.42101 16.7309 8.53102C16.5952 8.64071 16.4454 8.73176 16.2855 8.80174C16.1388 8.87186 15.9782 8.90796 15.8156 8.90734H7.77844L7.64596 8.88382C7.59155 8.87136 7.53862 8.85317 7.48804 8.82958C7.19284 8.7787 6.93172 8.62078 6.7042 8.35822C6.47668 8.09614 6.36292 7.8091 6.36292 7.49566V5.11246ZM8.78644 15.9249C8.5162 16.2038 8.1778 16.343 7.77844 16.343C7.37668 16.343 7.04884 16.2038 6.79444 15.9249C6.54196 15.6465 6.41572 15.3038 6.41572 14.9021C6.41572 14.5358 6.54724 14.2185 6.8098 13.9488C7.07092 13.6776 7.39396 13.5403 7.77844 13.5403C8.1778 13.5403 8.51572 13.6699 8.78644 13.919C9.05716 14.1749 9.19204 14.5075 9.19204 14.9294C9.19204 15.3139 9.05716 15.6465 8.78644 15.9249ZM14.7812 15.9249C14.5114 15.6465 14.3741 15.3038 14.3741 14.9021C14.3741 14.4998 14.5176 14.1749 14.8061 13.919C15.0841 13.6719 15.4441 13.5369 15.816 13.5403C16.2144 13.5403 16.5437 13.6771 16.7967 13.9488C17.0487 14.2185 17.1773 14.5363 17.1773 14.9021C17.1773 15.3038 17.0453 15.6465 16.7837 15.9249C16.5202 16.2038 16.1904 16.343 15.7872 16.343C15.3869 16.343 15.0509 16.2038 14.7812 15.9249Z" fill="#BDBDBD"/>
</svg>
