<svg width="40" height="40" viewBox="0 0 40 40" fill="none" xmlns="http://www.w3.org/2000/svg">
<path d="M32 12H17.3272C17.2273 12 17.1295 12.0139 17.0347 12.0454C14.8682 12.7656 10.4071 15.3816 8.73041 20.5441C8.71405 20.5944 8.70193 20.6467 8.69407 20.6991L8.17241 24.174C8.08164 24.7786 8.54991 25.3224 9.16133 25.3224H32" stroke="black" stroke-width="1.4"/>
<rect x="18.5884" y="14.7429" width="13.4118" height="5.48571" rx="1" fill="black"/>
<path d="M11.9374 15.0737C12.127 14.8631 12.3971 14.7429 12.6804 14.7429H15.4706C16.0229 14.7429 16.4706 15.1906 16.4706 15.7429V19.2286C16.4706 19.7809 16.0229 20.2286 15.4706 20.2286H9.05884L10.0515 17.2897C10.0952 17.1606 10.1647 17.0417 10.2559 16.9404L11.9374 15.0737Z" fill="black"/>
<rect x="8.70581" y="21.7958" width="23.2941" height="1.4" fill="black"/>
<rect x="8.75" y="28.5308" width="23.25" height="1.46939" fill="black"/>
</svg>
