<svg width="40" height="40" viewBox="0 0 40 40" fill="none" xmlns="http://www.w3.org/2000/svg">
<path d="M10.3854 23.2879C10.1026 23.6273 10.1484 24.1317 10.4879 24.4146C10.8273 24.6974 11.3317 24.6516 11.6146 24.3121L10.3854 23.2879ZM20 13L20.6146 12.4879L20 11.7504L19.3854 12.4879L20 13ZM28.3854 24.3121C28.6683 24.6516 29.1727 24.6974 29.5121 24.4146C29.8516 24.1317 29.8974 23.6273 29.6146 23.2879L28.3854 24.3121ZM11.6146 24.3121L20.6146 13.5121L19.3854 12.4879L10.3854 23.2879L11.6146 24.3121ZM19.3854 13.5121L28.3854 24.3121L29.6146 23.2879L20.6146 12.4879L19.3854 13.5121Z" fill="black"/>
</svg>
