<svg width="11" height="6" viewBox="0 0 11 6" fill="none" xmlns="http://www.w3.org/2000/svg">
<path d="M10.2369 0.266468C10.1541 0.181999 10.0556 0.114984 9.9473 0.0692601C9.83895 0.0235359 9.72281 -3.46515e-08 9.60552 -3.98811e-08C9.48822 -4.51108e-08 9.37208 0.0235358 9.26374 0.06926C9.15539 0.114984 9.05698 0.181999 8.97412 0.266468L5.49922 3.80184L2.02432 0.266468C1.85686 0.0960984 1.62974 0.000385426 1.39293 0.000385415C1.15611 0.000385404 0.928986 0.0960983 0.76153 0.266468C0.594074 0.436838 0.5 0.667909 0.5 0.908848C0.5 1.14979 0.594074 1.38086 0.76153 1.55123L4.8723 5.73353C4.95516 5.818 5.05357 5.88502 5.16192 5.93074C5.27026 5.97646 5.3864 6 5.5037 6C5.62099 6 5.73714 5.97646 5.84548 5.93074C5.95382 5.88502 6.05224 5.818 6.13509 5.73353L10.2459 1.55123C10.5862 1.20498 10.5862 0.621828 10.2369 0.266468Z" fill="black"/>
</svg>
