<svg width="40" height="40" viewBox="0 0 40 40" fill="none" xmlns="http://www.w3.org/2000/svg">
<path d="M30.9255 12.2124L33.2878 9.88397C33.6811 9.49627 33.6811 8.86769 33.2878 8.47999L31.4839 6.70199C31.0906 6.31429 30.4529 6.31429 30.0595 6.70199L27.6972 9.03046M30.9255 12.2124L27.6972 9.03046M30.9255 12.2124L21.8945 21.114C21.7684 21.2383 21.611 21.3274 21.4386 21.3721L18.9905 22.0071C18.2446 22.2006 17.5638 21.5296 17.7601 20.7944L18.4044 18.3814C18.4498 18.2114 18.5401 18.0563 18.6662 17.932L27.6972 9.03046" stroke="black" stroke-width="1.3"/>
<path d="M10 13.125H9.35V13.775H10V13.125ZM27.5008 8.35H11V9.65H27.5008V8.35ZM9.35 10V13.125H10.65V10H9.35ZM10 13.775H23.3158V12.475H10V13.775ZM11 8.35C10.0887 8.35 9.35 9.08873 9.35 10H10.65C10.65 9.8067 10.8067 9.65 11 9.65V8.35Z" fill="black"/>
<path d="M10 13.5V29C10 29.5523 10.4477 30 11 30H26.8812C27.4335 30 27.8812 29.5523 27.8812 29V15" stroke="black" stroke-width="1.3"/>
</svg>
