<svg width="165" height="56" viewBox="0 0 165 56" fill="none" xmlns="http://www.w3.org/2000/svg">
<rect x="1.77952" y="1.77952" width="161.441" height="52.1036" rx="26.0518" fill="#FEF7B1" stroke="black" stroke-width="3.55904"/>
<circle cx="133.193" cy="27.8313" r="12.3904" fill="white" stroke="black" stroke-width="3.0506"/>
<path d="M31.176 42.0219C28.644 42.0219 26.466 41.4579 24.642 40.3299C22.83 39.2019 21.45 37.6239 20.502 35.5959C19.554 33.5559 19.08 31.1979 19.08 28.5219C19.08 25.8459 19.554 23.4939 20.502 21.4659C21.45 19.4259 22.83 17.8419 24.642 16.7139C26.466 15.5859 28.644 15.0219 31.176 15.0219C33.144 15.0219 34.896 15.3639 36.432 16.0479C37.968 16.7319 39.252 17.7099 40.284 18.9819C41.328 20.2419 42.096 21.7359 42.588 23.4639L39.33 24.3279C38.79 22.3479 37.83 20.8119 36.45 19.7199C35.07 18.6279 33.312 18.0819 31.176 18.0819C29.28 18.0819 27.678 18.5199 26.37 19.3959C25.062 20.2719 24.084 21.5019 23.436 23.0859C22.788 24.6699 22.464 26.5179 22.464 28.6299C22.464 30.7059 22.794 32.5179 23.454 34.0659C24.114 35.6139 25.092 36.8199 26.388 37.6839C27.696 38.5359 29.292 38.9619 31.176 38.9619C33.312 38.9619 35.07 38.4159 36.45 37.3239C37.83 36.2319 38.79 34.6959 39.33 32.7159L42.588 33.5799C42.096 35.3079 41.328 36.8079 40.284 38.0799C39.252 39.3399 37.968 40.3119 36.432 40.9959C34.896 41.6799 33.144 42.0219 31.176 42.0219ZM66.5685 41.4819H63.2385L61.1865 35.4159H50.1165L48.0825 41.4819H44.7525L53.4285 15.5619H57.8925L66.5685 41.4819ZM55.6245 18.9279L51.1245 32.4099H60.1785L55.6245 18.9279ZM73.7148 41.4819H70.5108V15.5619H73.7148V27.7299L85.0548 15.5619H89.0868L77.3148 28.1439L90.0048 41.4819H85.8648L73.7148 28.8099V41.4819ZM109.619 41.4819H93.2386V15.5619H109.619V18.6039H96.4426V26.7219H107.459V29.7639H96.4426V38.4399H109.619V41.4819Z" fill="black"/>
</svg>
