<svg width="238" height="215" viewBox="0 0 238 215" fill="none" xmlns="http://www.w3.org/2000/svg">
<path fill-rule="evenodd" clip-rule="evenodd" d="M145.73 46.0062C145.73 46.0061 145.73 46.0061 145.73 46.006L144.258 34.3324C144.161 33.5611 143.26 33.1909 142.648 33.6712L133.397 40.9414C133.397 40.9414 133.397 40.9415 133.397 40.9415C133.397 40.9415 133.397 40.9416 133.397 40.9418L133.397 40.9419L130.631 47.6759C130.497 48.0035 130.546 48.3779 130.76 48.6601L134.734 53.8995C134.953 54.1891 135.313 54.3367 135.673 54.285L142.182 53.3508C142.533 53.3005 142.831 53.0684 142.965 52.7408L145.73 46.0068L145.73 46.0067C145.731 46.0065 145.731 46.0064 145.73 46.0062Z" fill="#E5D9FF"/>
<path fill-rule="evenodd" clip-rule="evenodd" d="M140.864 46.7458C140.863 46.7455 140.863 46.7452 140.863 46.745L140.825 41.555C140.822 41.1116 140.286 40.8916 139.972 41.2047L136.297 44.8699C136.297 44.8701 136.297 44.8702 136.297 44.8703C136.296 44.8705 136.296 44.8708 136.296 44.8713L136.295 44.8719L134.896 48.2789C134.838 48.4199 134.848 48.5797 134.922 48.7127L136.149 50.9088C136.263 51.112 136.501 51.21 136.725 51.1452L139.141 50.4452C139.287 50.4027 139.406 50.2958 139.464 50.1548L140.863 46.7478L140.864 46.7472C140.864 46.7467 140.864 46.7462 140.864 46.7458Z" fill="#FEF7B1"/>
<rect x="72.2319" y="80" width="73.3333" height="13.3333" rx="1" transform="rotate(5.3713 72.2319 80)" fill="#E5D9FF"/>
<rect x="89.3601" y="132.493" width="73.3333" height="13.3333" rx="1" transform="rotate(-2.73026 89.3601 132.493)" fill="#E5D9FF"/>
<rect x="83.9531" y="46" width="102.484" height="25.7134" rx="12.8567" transform="rotate(18.0545 83.9531 46)" fill="#FEF7B1"/>
<rect x="67.729" y="103.398" width="102.484" height="25.7134" rx="12.8567" fill="#FEF7B1"/>
<rect x="75.729" y="157.595" width="102.484" height="25.7134" rx="12.8567" transform="rotate(-12.7358 75.729 157.595)" fill="#FEF7B1"/>
<rect x="64.729" y="13.4229" width="7" height="20" transform="rotate(-29.2731 64.729 13.4229)" fill="white"/>
<rect x="44.0156" y="107.383" width="7" height="12.7066" transform="rotate(-80.7632 44.0156 107.383)" fill="white"/>
<rect x="14" y="57.665" width="7" height="40.7709" transform="rotate(-54.0263 14 57.665)" fill="white"/>
<rect x="22.1868" y="113.354" width="7" height="18.498" transform="rotate(-32.1673 22.1868 113.354)" fill="white"/>
<rect x="179.729" y="124.727" width="7" height="18.498" transform="rotate(-32.1673 179.729 124.727)" fill="white"/>
<rect x="216.276" y="129" width="7" height="18.498" transform="rotate(30.0966 216.276 129)" fill="white"/>
<rect x="184.092" width="7" height="29.6009" transform="rotate(34.6222 184.092 0)" fill="white"/>
<rect x="193.507" y="33" width="7" height="16.1876" transform="rotate(63.6588 193.507 33)" fill="white"/>
<rect x="224.896" y="76" width="7" height="35.1112" transform="rotate(47.5216 224.896 76)" fill="white"/>
<path d="M18.9241 199.446C18.1268 199.896 17.1942 199.127 17.484 198.258L32.6825 152.718C32.9047 152.052 33.7257 151.817 34.2672 152.263L60.8783 174.206C61.4199 174.652 61.3449 175.503 60.7337 175.848L18.9241 199.446Z" fill="white"/>
<path d="M60.9522 175.788L29.5611 161.465L26.4855 171.098L50.5245 181.793L60.9522 175.788Z" fill="#333333"/>
<path d="M42.6133 186.222L24.1154 177.663L20.9763 186.635L32.8465 192.164L42.6133 186.222Z" fill="#333333"/>
<path d="M221.93 197.392C222.766 197.766 223.623 196.914 223.254 196.076L206.193 157.373C205.91 156.731 205.07 156.573 204.572 157.068L183.026 178.494C182.529 178.989 182.682 179.829 183.323 180.116L221.93 197.392Z" fill="white"/>
<path d="M182.979 180.016L209.619 164.722L213.143 173.007L192.719 184.476L182.979 180.016Z" fill="#333333"/>
<path d="M200.098 187.747L215.787 178.629L219.312 186.323L209.247 192.205L200.098 187.747Z" fill="#333333"/>
</svg>
