<svg width="240" height="240" viewBox="0 0 240 240" fill="none" xmlns="http://www.w3.org/2000/svg">
<g clip-path="url(#clip0_1278_5494)">
<rect width="240" height="240" fill="white"/>
<rect x="24" y="188" width="196" height="52" fill="url(#paint0_linear_1278_5494)" fill-opacity="0.2"/>
<ellipse cx="122" cy="188" rx="98" ry="15" fill="black"/>
<path d="M147 0H98.9913L24 137H220L147 0Z" fill="url(#paint1_linear_1278_5494)"/>
<rect x="85.8152" y="114.981" width="72.4298" height="13.169" fill="#E5D9FF"/>
<rect x="85.8152" y="147.904" width="72.4298" height="13.169" fill="#E5D9FF"/>
<rect x="71" y="93.582" width="101.221" height="25.3966" rx="12.6983" fill="#FEF7B1"/>
<rect x="71" y="125.327" width="101.221" height="25.3966" rx="12.6983" fill="#FEF7B1"/>
<rect x="71" y="157.076" width="101.221" height="25.3966" rx="12.6983" fill="#FEF7B1"/>
<path d="M98 94H86C86 88.5753 89.4073 87.7173 91.9466 88.0684C92.852 88.1936 93.6145 88.7585 94.201 89.4595L98 94Z" fill="#E5D9FF"/>
<path d="M108 94H96C96 88.5753 99.4073 87.7173 101.947 88.0684C102.852 88.1936 103.614 88.7585 104.201 89.4595L108 94Z" fill="#E5D9FF"/>
<path d="M118 94H106C106 88.5753 109.407 87.7173 111.947 88.0684C112.852 88.1936 113.614 88.7585 114.201 89.4595L118 94Z" fill="#E5D9FF"/>
<path d="M128 94H116C116 88.5753 119.407 87.7173 121.947 88.0684C122.852 88.1936 123.614 88.7585 124.201 89.4595L128 94Z" fill="#E5D9FF"/>
<path d="M138 94H126C126 88.5753 129.407 87.7173 131.947 88.0684C132.852 88.1936 133.614 88.7585 134.201 89.4595L138 94Z" fill="#E5D9FF"/>
<path d="M158 94H146C146 88.5753 149.407 87.7173 151.947 88.0684C152.852 88.1936 153.614 88.7585 154.201 89.4595L158 94Z" fill="#E5D9FF"/>
<path d="M148 94H136C136 88.5753 139.407 87.7173 141.947 88.0684C142.852 88.1936 143.614 88.7585 144.201 89.4595L148 94Z" fill="#E5D9FF"/>
<path fill-rule="evenodd" clip-rule="evenodd" d="M106.584 77.3186C106.584 77.3186 106.584 77.3186 106.584 77.3185L102.162 69.5074C101.779 68.8309 100.805 68.8309 100.422 69.5074L96.0003 77.3185C96.0003 77.3186 96.0003 77.3186 96.0002 77.3186C96.0001 77.3187 96 77.3188 96 77.319V77.3191V82.9799C96 83.3341 96.1874 83.6618 96.4926 83.8416L100.785 86.369C101.098 86.5535 101.486 86.5535 101.799 86.369L106.092 83.8416C106.397 83.6618 106.584 83.3341 106.584 82.9799V77.3191V77.319C106.584 77.3188 106.584 77.3187 106.584 77.3186Z" fill="#E5D9FF"/>
<path fill-rule="evenodd" clip-rule="evenodd" d="M103.233 79.329C103.233 79.3288 103.232 79.3286 103.232 79.3284L101.734 75.7559C101.563 75.347 100.984 75.347 100.812 75.7559L99.3142 79.3284C99.3141 79.3286 99.314 79.3288 99.3138 79.329C99.3134 79.3292 99.3132 79.3296 99.3132 79.3301V79.3307V82.2045C99.3132 82.3569 99.3828 82.501 99.5021 82.5959L100.962 83.7566C101.144 83.9014 101.402 83.9014 101.584 83.7566L103.044 82.5959C103.164 82.501 103.233 82.3569 103.233 82.2045V79.3307V79.3301C103.233 79.3296 103.233 79.3292 103.233 79.329Z" fill="#FEF7B1"/>
<path fill-rule="evenodd" clip-rule="evenodd" d="M128.584 77.3186C128.584 77.3186 128.584 77.3186 128.584 77.3185L124.162 69.5074C123.779 68.8309 122.805 68.8309 122.422 69.5074L118 77.3185C118 77.3186 118 77.3186 118 77.3186C118 77.3187 118 77.3188 118 77.319V77.3191V82.9799C118 83.3341 118.187 83.6618 118.493 83.8416L122.785 86.369C123.098 86.5535 123.486 86.5535 123.799 86.369L128.092 83.8416C128.397 83.6618 128.584 83.3341 128.584 82.9799V77.3191V77.319C128.584 77.3188 128.584 77.3187 128.584 77.3186Z" fill="#E5D9FF"/>
<path fill-rule="evenodd" clip-rule="evenodd" d="M125.233 79.329C125.233 79.3288 125.232 79.3286 125.232 79.3284L123.734 75.7559C123.563 75.347 122.984 75.347 122.812 75.7559L121.314 79.3284C121.314 79.3286 121.314 79.3288 121.314 79.329C121.313 79.3292 121.313 79.3296 121.313 79.3301V79.3307V82.2045C121.313 82.3569 121.383 82.501 121.502 82.5959L122.962 83.7566C123.144 83.9014 123.402 83.9014 123.584 83.7566L125.044 82.5959C125.164 82.501 125.233 82.3569 125.233 82.2045V79.3307V79.3301C125.233 79.3296 125.233 79.3292 125.233 79.329Z" fill="#FEF7B1"/>
<path fill-rule="evenodd" clip-rule="evenodd" d="M149.584 77.3186C149.584 77.3186 149.584 77.3186 149.584 77.3185L145.162 69.5074C144.779 68.8309 143.805 68.8309 143.422 69.5074L139 77.3185C139 77.3186 139 77.3186 139 77.3186C139 77.3187 139 77.3188 139 77.319V77.3191V82.9799C139 83.3341 139.187 83.6618 139.493 83.8416L143.785 86.369C144.098 86.5535 144.486 86.5535 144.799 86.369L149.092 83.8416C149.397 83.6618 149.584 83.3341 149.584 82.9799V77.3191V77.319C149.584 77.3188 149.584 77.3187 149.584 77.3186Z" fill="#E5D9FF"/>
<path fill-rule="evenodd" clip-rule="evenodd" d="M146.233 79.329C146.233 79.3288 146.232 79.3286 146.232 79.3284L144.734 75.7559C144.563 75.347 143.984 75.347 143.812 75.7559L142.314 79.3284C142.314 79.3286 142.314 79.3288 142.314 79.329C142.313 79.3292 142.313 79.3296 142.313 79.3301V79.3307V82.2045C142.313 82.3569 142.383 82.501 142.502 82.5959L143.962 83.7566C144.144 83.9014 144.402 83.9014 144.584 83.7566L146.044 82.5959C146.164 82.501 146.233 82.3569 146.233 82.2045V79.3307V79.3301C146.233 79.3296 146.233 79.3292 146.233 79.329Z" fill="#FEF7B1"/>
<circle cx="80" cy="101" r="2" fill="white"/>
<circle cx="88" cy="111" r="2" fill="white"/>
<circle cx="107" cy="111" r="2" fill="white"/>
<circle cx="96" cy="101" r="2" fill="white"/>
<circle cx="118" cy="101" r="2" fill="white"/>
<circle cx="154" cy="101" r="2" fill="white"/>
<circle cx="126" cy="111" r="2" fill="white"/>
<circle cx="162" cy="111" r="2" fill="white"/>
<circle cx="145" cy="111" r="2" fill="white"/>
<circle cx="134" cy="101" r="2" fill="white"/>
<circle cx="80" cy="133" r="2" fill="white"/>
<circle cx="80" cy="165" r="2" fill="white"/>
<circle cx="88" cy="143" r="2" fill="white"/>
<circle cx="88" cy="175" r="2" fill="white"/>
<circle cx="107" cy="143" r="2" fill="white"/>
<circle cx="107" cy="175" r="2" fill="white"/>
<circle cx="96" cy="133" r="2" fill="white"/>
<circle cx="96" cy="165" r="2" fill="white"/>
<circle cx="118" cy="133" r="2" fill="white"/>
<circle cx="118" cy="165" r="2" fill="white"/>
<circle cx="154" cy="133" r="2" fill="white"/>
<circle cx="154" cy="165" r="2" fill="white"/>
<circle cx="126" cy="143" r="2" fill="white"/>
<circle cx="126" cy="175" r="2" fill="white"/>
<circle cx="162" cy="143" r="2" fill="white"/>
<circle cx="162" cy="175" r="2" fill="white"/>
<circle cx="145" cy="143" r="2" fill="white"/>
<circle cx="145" cy="175" r="2" fill="white"/>
<circle cx="134" cy="133" r="2" fill="white"/>
<circle cx="134" cy="165" r="2" fill="white"/>
<path d="M88 34C91.5 34 92.8333 25 93 21C93 31.4 96.3333 34 98 34C94 34 93 42.3333 93 46.5C93 38.9 90.5 34 88 34Z" fill="white"/>
<path d="M133 20.902C138.6 20.902 140.733 6.43137 141 0C141 16.7216 146.333 20.902 149 20.902C142.6 20.902 141 34.3007 141 41C141 28.7804 137 20.902 133 20.902Z" fill="white"/>
<path d="M111 6C114.5 6 115.833 -3 116 -7C116 3.4 119.333 6 121 6C117 6 116 14.3333 116 18.5C116 10.9 113.5 6 111 6Z" fill="white"/>
<path d="M123 50.1961C125.8 50.1961 126.867 43.1373 127 40C127 48.1569 129.667 50.1961 131 50.1961C127.8 50.1961 127 56.732 127 60C127 54.0392 125 50.1961 123 50.1961Z" fill="white"/>
<path d="M161 71C164.5 71 165.833 62 166 58C166 68.4 169.333 71 171 71C167 71 166 79.3333 166 83.5C166 75.9 163.5 71 161 71Z" fill="white"/>
<path d="M65 81C68.5 81 69.8333 72 70 68C70 78.4 73.3333 81 75 81C71 81 70 89.3333 70 93.5C70 85.9 67.5 81 65 81Z" fill="white"/>
</g>
<defs>
<linearGradient id="paint0_linear_1278_5494" x1="122" y1="203" x2="122" y2="240" gradientUnits="userSpaceOnUse">
<stop stop-color="#979797"/>
<stop offset="1" stop-color="#D9D9D9" stop-opacity="0"/>
</linearGradient>
<linearGradient id="paint1_linear_1278_5494" x1="122" y1="0" x2="122" y2="137" gradientUnits="userSpaceOnUse">
<stop stop-color="#FEF7B1"/>
<stop offset="1" stop-color="white" stop-opacity="0"/>
</linearGradient>
<clipPath id="clip0_1278_5494">
<rect width="240" height="240" fill="white"/>
</clipPath>
</defs>
</svg>
