<svg width="240" height="240" viewBox="0 0 240 240" fill="none" xmlns="http://www.w3.org/2000/svg">
<rect width="240" height="240" fill="white"/>
<mask id="path-1-inside-1_194_923" fill="white">
<path fill-rule="evenodd" clip-rule="evenodd" d="M175.62 108.535C175.64 108.072 175.65 107.607 175.65 107.139C175.65 89.2252 161.128 74.7031 143.214 74.7031C134.445 74.7031 126.488 78.1832 120.65 83.8377C114.812 78.1832 106.855 74.7031 98.0858 74.7031C80.1719 74.7031 65.6499 89.2252 65.6499 107.139C65.6499 107.607 65.6598 108.072 65.6794 108.535C65.6598 108.992 65.6499 109.467 65.6499 109.96C65.6499 136.441 120.65 177.653 120.65 177.653C120.65 177.653 175.65 136.441 175.65 109.96C175.65 109.467 175.64 108.992 175.62 108.535Z"/>
</mask>
<path fill-rule="evenodd" clip-rule="evenodd" d="M175.62 108.535C175.64 108.072 175.65 107.607 175.65 107.139C175.65 89.2252 161.128 74.7031 143.214 74.7031C134.445 74.7031 126.488 78.1832 120.65 83.8377C114.812 78.1832 106.855 74.7031 98.0858 74.7031C80.1719 74.7031 65.6499 89.2252 65.6499 107.139C65.6499 107.607 65.6598 108.072 65.6794 108.535C65.6598 108.992 65.6499 109.467 65.6499 109.96C65.6499 136.441 120.65 177.653 120.65 177.653C120.65 177.653 175.65 136.441 175.65 109.96C175.65 109.467 175.64 108.992 175.62 108.535Z" fill="#D9D9D9" fill-opacity="0.2"/>
<path d="M175.62 108.535L174.621 108.493L174.62 108.535L174.621 108.578L175.62 108.535ZM120.65 83.8377L119.954 84.556L120.65 85.2299L121.346 84.556L120.65 83.8377ZM65.6794 108.535L66.6785 108.578L66.6803 108.535L66.6785 108.492L65.6794 108.535ZM120.65 177.653L120.05 178.453L120.65 178.902L121.25 178.453L120.65 177.653ZM176.62 108.577C176.625 108.457 176.629 108.338 176.633 108.218L174.634 108.154C174.63 108.267 174.626 108.38 174.621 108.493L176.62 108.577ZM176.648 107.499C176.649 107.379 176.65 107.259 176.65 107.139H174.65C174.65 107.252 174.649 107.365 174.648 107.478L176.648 107.499ZM176.65 107.139C176.65 106.589 176.637 106.042 176.61 105.499L174.613 105.595C174.637 106.107 174.65 106.621 174.65 107.139H176.65ZM176.292 102.232C176.132 101.141 175.919 100.067 175.655 99.0127L173.715 99.4972C173.962 100.488 174.163 101.498 174.314 102.523L176.292 102.232ZM174.704 95.8714C174.333 94.8362 173.913 93.8246 173.446 92.8396L171.639 93.6959C172.078 94.6218 172.472 95.5724 172.82 96.5452L174.704 95.8714ZM171.897 89.9466C171.332 89.0066 170.723 88.0967 170.071 87.2198L168.466 88.4125C169.078 89.2371 169.652 90.0926 170.182 90.9764L171.897 89.9466ZM167.988 84.6846C167.253 83.874 166.479 83.0997 165.668 82.3645L164.325 83.846C165.087 84.5375 165.816 85.2658 166.507 86.0282L167.988 84.6846ZM163.133 80.2816C162.256 79.6302 161.346 79.0208 160.406 78.4561L159.377 80.1706C160.26 80.7015 161.116 81.2746 161.941 81.8871L163.133 80.2816ZM157.513 76.9067C156.528 76.44 155.517 76.02 154.482 75.6495L153.808 77.5326C154.781 77.8807 155.731 78.2754 156.657 78.7141L157.513 76.9067ZM151.34 74.6978C150.286 74.4345 149.212 74.2212 148.121 74.0607L147.83 76.0394C148.855 76.1903 149.865 76.3908 150.856 76.6382L151.34 74.6978ZM144.854 73.7427C144.311 73.7164 143.764 73.7031 143.214 73.7031V75.7031C143.732 75.7031 144.246 75.7156 144.758 75.7404L144.854 73.7427ZM143.214 73.7031C142.675 73.7031 142.14 73.7159 141.607 73.7411L141.702 75.7388C142.203 75.7151 142.707 75.7031 143.214 75.7031V73.7031ZM138.408 74.0462C137.338 74.2001 136.285 74.4047 135.251 74.6574L135.726 76.6002C136.698 76.3628 137.687 76.1705 138.693 76.0257L138.408 74.0462ZM132.168 75.5709C131.152 75.9266 130.158 76.33 129.189 76.7784L130.028 78.5935C130.939 78.1721 131.874 77.793 132.829 77.4587L132.168 75.5709ZM126.339 78.2676C125.413 78.8105 124.514 79.3967 123.647 80.0235L124.819 81.6444C125.634 81.055 126.479 80.5038 127.35 79.9934L126.339 78.2676ZM121.135 82.029C120.733 82.3831 120.339 82.7467 119.954 83.1194L121.346 84.556C121.708 84.2054 122.078 83.8635 122.456 83.5304L121.135 82.029ZM121.346 83.1194C120.961 82.7467 120.567 82.3831 120.165 82.029L118.843 83.5304C119.222 83.8635 119.592 84.2054 119.954 84.556L121.346 83.1194ZM117.653 80.0235C116.786 79.3967 115.887 78.8105 114.96 78.2676L113.95 79.9934C114.821 80.5038 115.666 81.055 116.481 81.6444L117.653 80.0235ZM112.111 76.7784C111.142 76.33 110.148 75.9266 109.131 75.5709L108.471 77.4587C109.426 77.793 110.361 78.1721 111.271 78.5935L112.111 76.7784ZM106.049 74.6574C105.014 74.4047 103.962 74.2001 102.892 74.0462L102.607 76.0257C103.612 76.1705 104.602 76.3628 105.574 76.6002L106.049 74.6574ZM99.6925 73.7411C99.16 73.7159 98.6244 73.7031 98.0858 73.7031V75.7031C98.5928 75.7031 99.097 75.7151 99.598 75.7388L99.6925 73.7411ZM98.0858 73.7031C97.5358 73.7031 96.9889 73.7164 96.4453 73.7427L96.5419 75.7404C97.0533 75.7156 97.5681 75.7031 98.0858 75.7031V73.7031ZM93.1792 74.0607C92.088 74.2212 91.0138 74.4345 89.9594 74.6978L90.444 76.6382C91.4348 76.3908 92.4444 76.1903 93.4702 76.0394L93.1792 74.0607ZM86.8181 75.6495C85.783 76.0199 84.7714 76.44 83.7863 76.9067L84.6427 78.7141C85.5685 78.2754 86.5192 77.8807 87.492 77.5326L86.8181 75.6495ZM80.8934 78.4561C79.9534 79.0208 79.0435 79.6302 78.1666 80.2816L79.3592 81.8871C80.1838 81.2746 81.0394 80.7015 81.9232 80.1706L80.8934 78.4561ZM75.6314 82.3645C74.8208 83.0997 74.0464 83.874 73.3113 84.6846L74.7928 86.0282C75.4842 85.2658 76.2125 84.5375 76.9749 83.846L75.6314 82.3645ZM71.2284 87.2198C70.577 88.0967 69.9675 89.0066 69.4029 89.9466L71.1174 90.9764C71.6482 90.0926 72.2213 89.2371 72.8339 88.4125L71.2284 87.2198ZM67.8535 92.8396C67.3867 93.8246 66.9667 94.8362 66.5963 95.8714L68.4793 96.5452C68.8275 95.5724 69.2222 94.6218 69.6609 93.6959L67.8535 92.8396ZM65.6446 99.0126C65.3813 100.067 65.168 101.141 65.0075 102.232L66.9862 102.523C67.1371 101.498 67.3375 100.488 67.585 99.4972L65.6446 99.0126ZM64.6895 105.499C64.6632 106.042 64.6499 106.589 64.6499 107.139H66.6499C66.6499 106.621 66.6624 106.107 66.6871 105.595L64.6895 105.499ZM64.6499 107.139C64.6499 107.259 64.6505 107.379 64.6518 107.499L66.6517 107.478C66.6505 107.365 66.6499 107.252 66.6499 107.139H64.6499ZM64.667 108.218C64.6708 108.338 64.6752 108.457 64.6803 108.577L66.6785 108.492C66.6737 108.38 66.6696 108.267 66.666 108.154L64.667 108.218ZM64.6803 108.492C64.6751 108.613 64.6706 108.736 64.6667 108.86L66.6657 108.922C66.6693 108.806 66.6736 108.691 66.6785 108.578L64.6803 108.492ZM64.6517 109.594C64.6505 109.715 64.6499 109.837 64.6499 109.96H66.6499C66.6499 109.843 66.6505 109.728 66.6516 109.613L64.6517 109.594ZM64.6499 109.96C64.6499 110.472 64.6695 110.988 64.7076 111.508L66.7023 111.361C66.6675 110.888 66.6499 110.421 66.6499 109.96H64.6499ZM65.1357 114.579C65.3342 115.563 65.5908 116.557 65.9 117.559L67.8111 116.97C67.5198 116.025 67.2804 115.096 67.0962 114.183L65.1357 114.579ZM66.9215 120.44C67.2895 121.363 67.6973 122.291 68.1414 123.224L69.9471 122.364C69.5202 121.467 69.1299 120.579 68.7793 119.699L66.9215 120.44ZM69.5175 125.92C69.9906 126.79 70.4922 127.663 71.0196 128.538L72.7322 127.505C72.2192 126.654 71.7325 125.807 71.2747 124.965L69.5175 125.92ZM72.6255 131.087C73.1697 131.916 73.7348 132.745 74.3186 133.574L75.9538 132.423C75.3818 131.611 74.8291 130.799 74.2976 129.989L72.6255 131.087ZM76.0858 136.007C76.6811 136.803 77.2919 137.598 77.9162 138.39L79.487 137.152C78.8726 136.372 78.2721 135.591 77.6873 134.809L76.0858 136.007ZM79.7996 140.724C80.4321 141.49 81.0756 142.254 81.7282 143.013L83.2449 141.709C82.6006 140.96 81.9658 140.207 81.3422 139.451L79.7996 140.724ZM83.701 145.266C84.3647 146.01 85.0358 146.749 85.7124 147.483L87.1827 146.127C86.5133 145.401 85.8497 144.67 85.1937 143.934L83.701 145.266ZM87.7572 149.666C88.4453 150.39 89.1372 151.107 89.8312 151.817L91.261 150.418C90.5733 149.715 89.888 149.005 89.2067 148.288L87.7572 149.666ZM91.937 153.942C92.648 154.65 93.3595 155.349 94.0693 156.039L95.4632 154.605C94.759 153.921 94.0534 153.227 93.3484 152.525L91.937 153.942ZM96.2252 158.11C96.9552 158.803 97.6816 159.485 98.4022 160.155L99.7635 158.69C99.048 158.025 98.327 157.348 97.6025 156.66L96.2252 158.11ZM100.599 162.174C101.347 162.855 102.086 163.521 102.814 164.17L104.145 162.677C103.422 162.032 102.688 161.371 101.945 160.695L100.599 162.174ZM105.048 166.143C105.818 166.816 106.57 167.468 107.303 168.097L108.606 166.58C107.877 165.955 107.129 165.307 106.365 164.638L105.048 166.143ZM109.581 170.034C110.382 170.708 111.151 171.349 111.883 171.954L113.157 170.412C112.43 169.812 111.665 169.175 110.87 168.504L109.581 170.034ZM114.201 173.851C115.05 174.539 115.825 175.159 116.512 175.704L117.755 174.137C117.073 173.596 116.304 172.981 115.46 172.297L114.201 173.851ZM118.882 177.56C119.258 177.85 119.549 178.073 119.747 178.223C119.846 178.298 119.921 178.355 119.972 178.394C119.997 178.413 120.017 178.428 120.03 178.437C120.036 178.442 120.041 178.446 120.045 178.449C120.047 178.45 120.048 178.451 120.049 178.452C120.049 178.452 120.05 178.452 120.05 178.452C120.05 178.453 120.05 178.453 120.05 178.453C120.05 178.453 120.05 178.453 120.05 178.453C120.05 178.453 120.05 178.453 120.05 178.453C120.05 178.453 120.05 178.453 120.65 177.653C121.25 176.852 121.25 176.852 121.25 176.852C121.25 176.852 121.25 176.852 121.25 176.852C121.25 176.852 121.25 176.852 121.25 176.852C121.25 176.852 121.249 176.852 121.249 176.852C121.249 176.852 121.249 176.852 121.249 176.852C121.248 176.851 121.247 176.85 121.245 176.849C121.242 176.847 121.238 176.844 121.232 176.839C121.22 176.83 121.201 176.816 121.177 176.797C121.128 176.76 121.054 176.705 120.957 176.631C120.763 176.484 120.476 176.264 120.104 175.977L118.882 177.56ZM120.65 177.653C121.25 178.453 121.25 178.453 121.25 178.453C121.25 178.453 121.25 178.453 121.25 178.453C121.25 178.453 121.25 178.453 121.25 178.453C121.25 178.453 121.25 178.453 121.25 178.452C121.25 178.452 121.251 178.452 121.251 178.452C121.252 178.451 121.253 178.45 121.255 178.449C121.258 178.446 121.263 178.442 121.27 178.437C121.283 178.428 121.302 178.413 121.328 178.394C121.379 178.355 121.454 178.298 121.553 178.223C121.751 178.073 122.042 177.85 122.418 177.56L121.196 175.977C120.824 176.264 120.537 176.484 120.343 176.631C120.246 176.705 120.172 176.76 120.123 176.797C120.099 176.816 120.08 176.83 120.068 176.839C120.062 176.844 120.057 176.847 120.054 176.849C120.053 176.85 120.052 176.851 120.051 176.852C120.051 176.852 120.051 176.852 120.05 176.852C120.05 176.852 120.05 176.852 120.05 176.852C120.05 176.852 120.05 176.852 120.05 176.852L120.05 176.852C120.05 176.852 120.05 176.852 120.65 177.653ZM124.788 175.704C125.475 175.159 126.25 174.539 127.099 173.851L125.84 172.297C124.996 172.981 124.227 173.596 123.545 174.137L124.788 175.704ZM129.417 171.954C130.149 171.349 130.918 170.708 131.719 170.034L130.43 168.504C129.634 169.175 128.87 169.812 128.143 170.412L129.417 171.954ZM133.997 168.097C134.729 167.468 135.482 166.816 136.252 166.143L134.935 164.638C134.17 165.307 133.422 165.955 132.694 166.58L133.997 168.097ZM138.486 164.17C139.214 163.521 139.953 162.855 140.701 162.174L139.355 160.695C138.612 161.371 137.878 162.032 137.155 162.677L138.486 164.17ZM142.898 160.155C143.618 159.485 144.345 158.804 145.075 158.11L143.697 156.66C142.973 157.348 142.252 158.025 141.536 158.69L142.898 160.155ZM147.23 156.039C147.94 155.349 148.652 154.65 149.363 153.942L147.951 152.525C147.246 153.227 146.541 153.921 145.837 154.605L147.23 156.039ZM151.469 151.817C152.163 151.107 152.855 150.39 153.543 149.666L152.093 148.288C151.412 149.005 150.726 149.715 150.039 150.418L151.469 151.817ZM155.587 147.483C156.264 146.749 156.935 146.01 157.599 145.266L156.106 143.934C155.45 144.67 154.787 145.401 154.117 146.127L155.587 147.483ZM159.572 143.013C160.224 142.254 160.868 141.491 161.5 140.724L159.958 139.451C159.334 140.207 158.699 140.96 158.055 141.709L159.572 143.013ZM163.384 138.39C164.008 137.598 164.619 136.803 165.214 136.007L163.613 134.809C163.028 135.591 162.427 136.372 161.813 137.152L163.384 138.39ZM166.981 133.574C167.565 132.746 168.13 131.916 168.674 131.087L167.002 129.989C166.471 130.799 165.918 131.611 165.346 132.423L166.981 133.574ZM170.28 128.538C170.808 127.663 171.309 126.79 171.782 125.92L170.025 124.965C169.567 125.807 169.081 126.654 168.568 127.505L170.28 128.538ZM173.158 123.224C173.603 122.291 174.01 121.363 174.378 120.44L172.521 119.699C172.17 120.579 171.78 121.467 171.353 122.364L173.158 123.224ZM175.4 117.559C175.709 116.557 175.966 115.563 176.164 114.579L174.204 114.183C174.019 115.096 173.78 116.026 173.489 116.97L175.4 117.559ZM176.592 111.508C176.63 110.988 176.65 110.472 176.65 109.96H174.65C174.65 110.421 174.632 110.889 174.598 111.362L176.592 111.508ZM176.65 109.96C176.65 109.837 176.649 109.715 176.648 109.594L174.648 109.614C174.649 109.728 174.65 109.843 174.65 109.96H176.65ZM176.633 108.86C176.629 108.736 176.625 108.613 176.619 108.492L174.621 108.578C174.626 108.691 174.63 108.806 174.634 108.922L176.633 108.86ZM175.62 108.535L173.622 108.45L173.619 108.535L173.622 108.62L175.62 108.535ZM120.65 83.8377L119.258 85.2743L120.65 86.622L122.041 85.2743L120.65 83.8377ZM65.6794 108.535L67.6776 108.62L67.6812 108.535L67.6776 108.45L65.6794 108.535ZM120.65 177.653L119.451 179.253L120.65 180.152L121.849 179.253L120.65 177.653ZM177.619 108.619C177.624 108.496 177.628 108.373 177.632 108.249L173.634 108.123C173.631 108.232 173.627 108.341 173.622 108.45L177.619 108.619ZM177.648 107.509C177.649 107.386 177.65 107.263 177.65 107.139H173.65C173.65 107.248 173.649 107.358 173.648 107.467L177.648 107.509ZM177.65 107.139C177.65 106.573 177.636 106.01 177.609 105.45L173.614 105.643C173.638 106.139 173.65 106.637 173.65 107.139H177.65ZM177.282 102.087C177.116 100.963 176.897 99.8566 176.625 98.7704L172.745 99.7395C172.984 100.699 173.178 101.676 173.324 102.669L177.282 102.087ZM175.645 95.5344C175.263 94.4681 174.831 93.4261 174.35 92.4114L170.735 94.1241C171.16 95.0203 171.542 95.9406 171.879 96.8822L175.645 95.5344ZM172.754 89.4317C172.173 88.4636 171.545 87.5265 170.874 86.6235L167.663 89.0088C168.256 89.8072 168.811 90.6357 169.325 91.4913L172.754 89.4317ZM168.729 84.0128C167.972 83.1781 167.175 82.3808 166.34 81.6238L163.653 84.5868C164.391 85.2564 165.097 85.9616 165.766 86.6999L168.729 84.0128ZM163.73 79.4789C162.827 78.8081 161.889 78.1804 160.921 77.5989L158.862 81.0279C159.717 81.5418 160.546 82.0967 161.344 82.6898L163.73 79.4789ZM157.942 76.003C156.927 75.5223 155.885 75.0896 154.819 74.708L153.471 78.4741C154.412 78.811 155.333 79.1931 156.229 79.6178L157.942 76.003ZM151.583 73.7276C150.496 73.4563 149.39 73.2367 148.266 73.0714L147.684 77.0288C148.677 77.1749 149.654 77.3689 150.614 77.6084L151.583 73.7276ZM144.903 72.7439C144.343 72.7168 143.78 72.7031 143.214 72.7031V76.7031C143.716 76.7031 144.214 76.7152 144.71 76.7392L144.903 72.7439ZM143.214 72.7031C142.66 72.7031 142.108 72.7162 141.56 72.7422L141.749 76.7377C142.234 76.7147 142.723 76.7031 143.214 76.7031V72.7031ZM138.265 73.0564C137.164 73.2149 136.079 73.4257 135.014 73.686L135.963 77.5717C136.904 77.3418 137.862 77.1557 138.835 77.0155L138.265 73.0564ZM131.838 74.627C130.791 74.9934 129.767 75.409 128.769 75.8708L130.448 79.501C131.33 79.0931 132.234 78.7261 133.159 78.4026L131.838 74.627ZM125.834 77.4047C124.879 77.9639 123.954 78.5676 123.061 79.2131L125.404 82.4548C126.194 81.8841 127.012 81.3504 127.856 80.8563L125.834 77.4047ZM120.475 81.2782C120.06 81.6428 119.655 82.0173 119.258 82.4011L122.041 85.2743C122.392 84.9348 122.751 84.6037 123.117 84.2812L120.475 81.2782ZM122.041 82.4011C121.645 82.0173 121.24 81.6429 120.825 81.2782L118.183 84.2812C118.549 84.6037 118.908 84.9348 119.258 85.2743L122.041 82.4011ZM118.239 79.2131C117.346 78.5676 116.42 77.9639 115.466 77.4047L113.444 80.8563C114.288 81.3504 115.106 81.8841 115.895 82.4548L118.239 79.2131ZM112.531 75.8708C111.533 75.409 110.509 74.9934 109.462 74.627L108.141 78.4026C109.065 78.7261 109.97 79.0931 110.851 79.501L112.531 75.8708ZM106.286 73.686C105.221 73.4257 104.136 73.2149 103.035 73.0564L102.465 77.0155C103.438 77.1557 104.396 77.3418 105.337 77.5717L106.286 73.686ZM99.7398 72.7422C99.1916 72.7162 98.6401 72.7031 98.0858 72.7031V76.7031C98.577 76.7031 99.0654 76.7147 99.5507 76.7377L99.7398 72.7422ZM98.0858 72.7031C97.5197 72.7031 96.9567 72.7168 96.397 72.7439L96.5901 76.7392C97.0855 76.7152 97.5842 76.7031 98.0858 76.7031V72.7031ZM93.0336 73.0714C91.9098 73.2367 90.8033 73.4563 89.7172 73.7276L90.6863 77.6084C91.6454 77.3689 92.6226 77.1749 93.6157 77.0288L93.0336 73.0714ZM86.4812 74.708C85.4148 75.0896 84.3728 75.5222 83.3582 76.003L85.0709 79.6178C85.9671 79.1931 86.8873 78.811 87.8289 78.4741L86.4812 74.708ZM80.3785 77.5989C79.4103 78.1804 78.4733 78.8081 77.5703 79.4789L79.9556 82.6898C80.754 82.0967 81.5824 81.5418 82.4381 81.0279L80.3785 77.5989ZM74.9596 81.6238C74.1249 82.3808 73.3275 83.1781 72.5706 84.0128L75.5336 86.6999C76.2031 85.9616 76.9084 85.2564 77.6467 84.5868L74.9596 81.6238ZM70.4256 86.6235C69.7549 87.5265 69.1272 88.4636 68.5457 89.4317L71.9747 91.4913C72.4886 90.6357 73.0435 89.8072 73.6366 89.0088L70.4256 86.6235ZM66.9498 92.4114C66.469 93.4261 66.0364 94.468 65.6547 95.5344L69.4209 96.8822C69.7578 95.9406 70.1399 95.0203 70.5646 94.1241L66.9498 92.4114ZM64.6743 98.7704C64.4031 99.8565 64.1835 100.963 64.0182 102.087L67.9756 102.669C68.1217 101.676 68.3157 100.699 68.5552 99.7395L64.6743 98.7704ZM63.6906 105.45C63.6636 106.01 63.6499 106.573 63.6499 107.139H67.6499C67.6499 106.637 67.662 106.139 67.686 105.643L63.6906 105.45ZM63.6499 107.139C63.6499 107.263 63.6506 107.386 63.6519 107.509L67.6516 107.467C67.6505 107.358 67.6499 107.248 67.6499 107.139H63.6499ZM63.6675 108.249C63.6714 108.373 63.676 108.496 63.6812 108.619L67.6776 108.45C67.673 108.341 67.6689 108.232 67.6655 108.123L63.6675 108.249ZM63.6812 108.449C63.6759 108.574 63.6712 108.701 63.6672 108.828L67.6652 108.953C67.6687 108.841 67.6729 108.73 67.6776 108.62L63.6812 108.449ZM63.6518 109.584C63.6505 109.708 63.6499 109.834 63.6499 109.96H67.6499C67.6499 109.847 67.6505 109.734 67.6516 109.623L63.6518 109.584ZM63.6499 109.96C63.6499 110.498 63.6704 111.038 63.7103 111.581L67.6996 111.288C67.6665 110.839 67.6499 110.396 67.6499 109.96H63.6499ZM64.1554 114.777C64.3612 115.796 64.6263 116.823 64.9445 117.854L68.7667 116.675C68.4843 115.76 68.2534 114.863 68.0764 113.985L64.1554 114.777ZM65.9926 120.81C66.3692 121.755 66.7859 122.703 67.2385 123.654L70.85 121.934C70.4316 121.055 70.0502 120.186 69.7081 119.329L65.9926 120.81ZM68.6389 126.397C69.1196 127.282 69.6287 128.168 70.1633 129.054L73.5885 126.988C73.0827 126.15 72.6035 125.315 72.1533 124.487L68.6389 126.397ZM71.7895 131.635C72.34 132.474 72.9113 133.313 73.5011 134.15L76.7714 131.847C76.2053 131.043 75.6588 130.241 75.1337 129.441L71.7895 131.635ZM75.285 136.606C75.8857 137.409 76.5016 138.21 77.1308 139.009L80.2724 136.533C79.6629 135.759 79.0675 134.985 78.4881 134.21L75.285 136.606ZM79.0283 141.36C79.6653 142.132 80.3131 142.901 80.9699 143.665L84.0032 141.057C83.3631 140.313 82.7326 139.565 82.1135 138.815L79.0283 141.36ZM82.9547 145.931C83.6222 146.68 84.297 147.423 84.9772 148.161L87.9178 145.449C87.252 144.727 86.5922 144 85.94 143.269L82.9547 145.931ZM87.0325 150.355C87.7239 151.083 88.4191 151.803 89.1162 152.516L91.976 149.719C91.2914 149.019 90.6093 148.312 89.9314 147.599L87.0325 150.355ZM91.2313 154.65C91.9454 155.361 92.6597 156.064 93.3724 156.756L96.1602 153.888C95.4588 153.206 94.7561 152.515 94.0541 151.816L91.2313 154.65ZM95.5366 158.835C96.2693 159.531 96.9983 160.216 97.7215 160.888L100.444 157.957C99.7313 157.295 99.0129 156.62 98.2911 155.935L95.5366 158.835ZM99.9255 162.914C100.676 163.597 101.418 164.265 102.148 164.916L104.811 161.931C104.09 161.288 103.358 160.629 102.618 159.955L99.9255 162.914ZM104.39 166.896C105.162 167.571 105.917 168.225 106.652 168.856L109.257 165.821C108.531 165.198 107.785 164.552 107.023 163.885L104.39 166.896ZM108.937 170.799C109.74 171.475 110.512 172.118 111.246 172.725L113.794 169.642C113.069 169.043 112.307 168.408 111.514 167.739L108.937 170.799ZM113.571 174.628C114.424 175.318 115.201 175.94 115.891 176.488L118.376 173.354C117.697 172.815 116.93 172.201 116.089 171.52L113.571 174.628ZM118.271 178.352C118.649 178.644 118.942 178.868 119.142 179.019C119.241 179.095 119.318 179.153 119.37 179.192C119.396 179.212 119.415 179.227 119.429 179.237C119.436 179.242 119.441 179.246 119.445 179.248C119.446 179.25 119.448 179.251 119.449 179.252C119.449 179.252 119.45 179.252 119.45 179.253C119.45 179.253 119.45 179.253 119.45 179.253C119.45 179.253 119.45 179.253 119.451 179.253C119.451 179.253 119.451 179.253 119.451 179.253C119.451 179.253 119.451 179.253 120.65 177.653C121.849 176.052 121.849 176.052 121.849 176.052C121.849 176.052 121.849 176.052 121.849 176.052C121.849 176.052 121.849 176.052 121.849 176.052C121.849 176.052 121.849 176.052 121.849 176.052C121.849 176.052 121.849 176.052 121.849 176.052C121.848 176.051 121.847 176.05 121.846 176.049C121.843 176.047 121.839 176.044 121.833 176.04C121.821 176.031 121.803 176.017 121.779 175.999C121.731 175.963 121.658 175.908 121.562 175.835C121.37 175.689 121.085 175.471 120.715 175.186L118.271 178.352ZM120.65 177.653C121.849 179.253 121.849 179.253 121.849 179.253C121.849 179.253 121.849 179.253 121.849 179.253C121.849 179.253 121.849 179.253 121.849 179.253C121.85 179.253 121.85 179.253 121.85 179.253C121.85 179.252 121.851 179.252 121.851 179.252C121.852 179.251 121.853 179.25 121.855 179.248C121.859 179.246 121.864 179.242 121.871 179.237C121.884 179.227 121.904 179.212 121.93 179.192C121.982 179.153 122.058 179.095 122.158 179.019C122.358 178.868 122.651 178.644 123.029 178.352L120.585 175.185C120.215 175.471 119.93 175.689 119.738 175.835C119.642 175.908 119.569 175.963 119.521 175.999C119.497 176.017 119.479 176.031 119.467 176.04C119.461 176.044 119.457 176.047 119.454 176.049C119.453 176.05 119.452 176.051 119.451 176.052C119.451 176.052 119.451 176.052 119.451 176.052C119.451 176.052 119.451 176.052 119.451 176.052C119.451 176.052 119.451 176.052 119.451 176.052C119.451 176.052 119.451 176.052 119.451 176.052C119.451 176.052 119.451 176.052 120.65 177.653ZM125.409 176.488C126.099 175.94 126.876 175.318 127.729 174.628L125.21 171.52C124.37 172.201 123.603 172.815 122.923 173.354L125.409 176.488ZM130.054 172.725C130.788 172.118 131.56 171.475 132.363 170.799L129.786 167.739C128.993 168.408 128.231 169.043 127.506 169.642L130.054 172.725ZM134.648 168.856C135.383 168.225 136.138 167.571 136.91 166.896L134.277 163.885C133.514 164.552 132.769 165.198 132.043 165.821L134.648 168.856ZM139.152 164.916C139.882 164.265 140.624 163.597 141.374 162.914L138.682 159.955C137.942 160.629 137.21 161.288 136.489 161.931L139.152 164.916ZM143.578 160.888C144.301 160.216 145.03 159.531 145.763 158.835L143.009 155.935C142.287 156.62 141.569 157.295 140.856 157.957L143.578 160.888ZM147.927 156.756C148.64 156.064 149.354 155.361 150.069 154.65L147.246 151.816C146.544 152.515 145.841 153.206 145.14 153.888L147.927 156.756ZM152.184 152.516C152.881 151.803 153.576 151.083 154.267 150.355L151.368 147.599C150.69 148.312 150.008 149.019 149.324 149.719L152.184 152.516ZM156.323 148.161C157.003 147.423 157.678 146.68 158.345 145.931L155.36 143.269C154.708 144 154.048 144.727 153.382 145.449L156.323 148.161ZM160.33 143.665C160.987 142.901 161.635 142.132 162.271 141.361L159.186 138.815C158.567 139.565 157.937 140.313 157.297 141.058L160.33 143.665ZM164.169 139.009C164.798 138.21 165.414 137.409 166.015 136.606L162.812 134.21C162.232 134.985 161.637 135.759 161.027 136.533L164.169 139.009ZM167.799 134.15C168.388 133.313 168.96 132.474 169.51 131.635L166.166 129.441C165.641 130.241 165.094 131.043 164.528 131.847L167.799 134.15ZM171.137 129.054C171.671 128.168 172.18 127.282 172.661 126.397L169.147 124.487C168.696 125.315 168.217 126.15 167.711 126.988L171.137 129.054ZM174.061 123.654C174.514 122.703 174.931 121.755 175.307 120.81L171.592 119.329C171.25 120.187 170.868 121.055 170.45 121.934L174.061 123.654ZM176.355 117.854C176.674 116.823 176.939 115.796 177.144 114.777L173.223 113.985C173.046 114.863 172.816 115.76 172.533 116.675L176.355 117.854ZM177.589 111.581C177.629 111.038 177.65 110.498 177.65 109.96H173.65C173.65 110.396 173.633 110.839 173.6 111.288L177.589 111.581ZM177.65 109.96C177.65 109.834 177.649 109.708 177.648 109.584L173.648 109.623C173.649 109.734 173.65 109.847 173.65 109.96H177.65ZM177.633 108.828C177.629 108.701 177.624 108.575 177.619 108.449L173.622 108.62C173.627 108.73 173.631 108.841 173.635 108.954L177.633 108.828Z" fill="#D9D9D9" mask="url(#path-1-inside-1_194_923)"/>
<rect x="119.637" y="28" width="2.03764" height="16.3011" fill="#D9D9D9"/>
<rect x="119.637" y="196.105" width="2.03764" height="16.3011" fill="#D9D9D9"/>
<rect x="80.9226" y="37.1694" width="2.03764" height="16.3011" transform="rotate(-25 80.9226 37.1694)" fill="#D9D9D9"/>
<rect x="151.966" y="189.524" width="2.03764" height="16.3011" transform="rotate(-25 151.966 189.524)" fill="#D9D9D9"/>
<rect x="158.855" y="36.1504" width="2.03764" height="16.3011" transform="rotate(25 158.855 36.1504)" fill="#D9D9D9"/>
<rect x="87.8115" y="188.505" width="2.03764" height="16.3011" transform="rotate(25 87.8115 188.505)" fill="#D9D9D9"/>
<rect x="49.3386" y="62.6401" width="2.03764" height="16.3011" transform="rotate(-50 49.3386 62.6401)" fill="#D9D9D9"/>
<rect x="178.115" y="170.696" width="2.03764" height="16.3011" transform="rotate(-50 178.115 170.696)" fill="#D9D9D9"/>
<rect x="190.602" y="60.6021" width="2.03764" height="16.3011" transform="rotate(50 190.602 60.6021)" fill="#D9D9D9"/>
<rect x="61.8262" y="168.658" width="2.03764" height="16.3011" transform="rotate(50 61.8262 168.658)" fill="#D9D9D9"/>
<rect x="209.123" y="95.2422" width="2.03764" height="16.3011" transform="rotate(75 209.123 95.2422)" fill="#D9D9D9"/>
<rect x="46.7458" y="138.751" width="2.03764" height="16.3011" transform="rotate(75 46.7458 138.751)" fill="#D9D9D9"/>
<rect x="31" y="97.21" width="2.03764" height="16.3011" transform="rotate(-75 31 97.21)" fill="#D9D9D9"/>
<rect x="193.377" y="140.719" width="2.03764" height="16.3011" transform="rotate(-75 193.377 140.719)" fill="#D9D9D9"/>
</svg>
