<svg width="74" height="74" viewBox="0 0 74 74" fill="none" xmlns="http://www.w3.org/2000/svg">
<circle cx="37" cy="37" r="37" fill="#161616"/>
<path fill-rule="evenodd" clip-rule="evenodd" d="M43.3378 20.4371C43.3378 20.4371 43.3378 20.4371 43.3378 20.4371L43.0275 17.9764C42.9303 17.2052 42.0287 16.8349 41.4175 17.3153L39.4676 18.8476C39.4675 18.8476 39.4675 18.8477 39.4675 18.8477C39.4674 18.8477 39.4673 18.8477 39.4673 18.8478L38.7485 20.5981C38.614 20.9258 38.6628 21.3001 38.8768 21.5823L39.6427 22.592C39.8624 22.8816 40.2218 23.0292 40.5815 22.9775L41.836 22.7975C42.1866 22.7472 42.4844 22.5152 42.619 22.1875L43.3377 20.4372C43.3377 20.4372 43.3377 20.4372 43.3378 20.4372C43.3378 20.4372 43.3378 20.4372 43.3378 20.4372L43.3378 20.4371C43.3378 20.4371 43.3378 20.4371 43.3378 20.4371L43.3378 20.4371C43.3378 20.4371 43.3378 20.4371 43.3378 20.4371Z" fill="#E5D9FF"/>
<path fill-rule="evenodd" clip-rule="evenodd" d="M41.8107 20.6691C41.8106 20.669 41.8106 20.6689 41.8106 20.6689L41.8047 19.8584C41.8014 19.415 41.2655 19.195 40.9516 19.5081L40.3778 20.0804C40.3777 20.0804 40.3776 20.0805 40.3776 20.0805C40.3774 20.0806 40.3773 20.0807 40.3772 20.0808L40.001 20.997C39.9431 21.138 39.9526 21.2977 40.027 21.4308L40.1982 21.7373C40.3117 21.9405 40.5503 22.0385 40.7739 21.9737L41.1111 21.876C41.2575 21.8336 41.3765 21.7267 41.4345 21.5857L41.8106 20.6697C41.8106 20.6697 41.8106 20.6697 41.8106 20.6697C41.8106 20.6697 41.8106 20.6697 41.8106 20.6697L41.8106 20.6696C41.8106 20.6696 41.8106 20.6696 41.8106 20.6696L41.8107 20.6695C41.8108 20.6693 41.8107 20.6692 41.8107 20.6691Z" fill="#FEF7B1"/>
<rect x="20.2734" y="31.1044" width="23.0124" height="4.18407" rx="1" transform="rotate(5.3713 20.2734 31.1044)" fill="#E5D9FF"/>
<rect x="25.6484" y="47.577" width="23.0124" height="4.18407" rx="1" transform="rotate(-2.73026 25.6484 47.577)" fill="#E5D9FF"/>
<rect x="23.9517" y="20.4351" width="32.1599" height="8.069" rx="4.0345" transform="rotate(18.0545 23.9517 20.4351)" fill="#FEF7B1"/>
<rect x="18.8604" y="38.4471" width="32.1599" height="8.069" rx="4.0345" fill="#FEF7B1"/>
<rect x="21.3711" y="55.454" width="32.1599" height="8.069" rx="4.0345" transform="rotate(-12.7358 21.3711 55.454)" fill="#FEF7B1"/>
<rect x="17.9189" y="10.2122" width="2.19664" height="6.2761" transform="rotate(-29.2731 17.9189 10.2122)" fill="white"/>
<rect x="11.4189" y="39.6973" width="2.19664" height="3.9874" transform="rotate(-80.7632 11.4189 39.6973)" fill="white"/>
<rect x="2" y="24.0956" width="2.19664" height="12.7941" transform="rotate(-54.0263 2 24.0956)" fill="white"/>
<rect x="4.56885" y="41.571" width="2.19664" height="5.80476" transform="rotate(-32.1673 4.56885 41.571)" fill="white"/>
<rect x="54.0063" y="45.1398" width="2.19664" height="5.80476" transform="rotate(-32.1673 54.0063 45.1398)" fill="white"/>
<rect x="65.4751" y="46.4808" width="2.19664" height="5.80476" transform="rotate(30.0966 65.4751 46.4808)" fill="white"/>
<rect x="55.376" y="6" width="2.19664" height="9.2889" transform="rotate(34.6222 55.376 6)" fill="white"/>
<rect x="58.3301" y="16.3556" width="2.19664" height="5.07974" transform="rotate(63.6588 58.3301 16.3556)" fill="white"/>
<rect x="68.1802" y="29.8492" width="2.19664" height="11.0181" transform="rotate(47.5216 68.1802 29.8492)" fill="white"/>
</svg>
